<?xml version="1.0" encoding="UTF-8"?>
<svg version="1.1" xmlns="http://www.w3.org/2000/svg" width="268" height="304">
<path d="M0 0 C1.09795898 0.00491455 2.19591797 0.0098291 3.32714844 0.01489258 C11.49438033 0.13265435 18.85959881 0.83366462 26.6875 3.3125 C27.75484375 3.64121094 28.8221875 3.96992187 29.921875 4.30859375 C41.96660038 8.47238039 52.21050802 15.42944424 61.40625 24.171875 C63.74666207 26.42127484 63.74666207 26.42127484 66.6640625 28.71484375 C81.71861205 41.64930816 91.65280974 63.79608325 93.6875 83.3125 C94.88960944 109.49757959 89.67365773 130.90277559 72.6875 151.3125 C72.048125 152.17875 71.40875 153.045 70.75 153.9375 C63.10289103 162.74326184 52.16457056 171.17280501 41.6875 176.3125 C40.6975 176.3125 39.7075 176.3125 38.6875 176.3125 C39.28816906 171.10670144 43.37167775 167.55719673 47 164.125 C58.55121083 152.03652355 65.56190629 137.2364623 66.125 120.4375 C65.28704721 87.32014848 38.70761751 61.5294332 16.46533203 39.99707031 C8.70447976 31.88762939 8.70447976 31.88762939 -1.3125 28.3125 C-3.56831822 30.01530766 -5.31758922 31.59367834 -7.2421875 33.62109375 C-7.79560822 34.18063248 -8.34902893 34.7401712 -8.91921997 35.31666565 C-10.68980359 37.11420195 -12.4382828 38.9316904 -14.1875 40.75 C-15.35673538 41.94076796 -16.52729549 43.13023667 -17.69921875 44.31835938 C-23.42993685 50.15340151 -29.02604243 56.06853258 -34.3125 62.3125 C-35.25987787 63.40411367 -36.20777646 64.49527569 -37.15625 65.5859375 C-53.24444691 84.28543174 -66.04136052 103.6753319 -64.53271484 129.14257812 C-63.99031695 134.48718173 -62.33263867 139.36736888 -60.3125 144.3125 C-60.02375 145.04597656 -59.735 145.77945313 -59.4375 146.53515625 C-57.12072027 151.73756788 -53.58745783 155.88983073 -49.921875 160.2109375 C-48.3125 162.3125 -48.3125 162.3125 -48.3125 164.3125 C-47.72855469 164.58320313 -47.14460938 164.85390625 -46.54296875 165.1328125 C-44.32366915 166.30659267 -42.54688838 167.57828326 -40.625 169.1875 C-40.02300781 169.67992187 -39.42101562 170.17234375 -38.80078125 170.6796875 C-37.10762501 172.53727098 -36.71065079 173.85989113 -36.3125 176.3125 C-51.38742686 174.51316375 -65.7149907 159.06698001 -74.8125 147.61328125 C-90.88463965 126.6568331 -95.22940495 102.46494687 -91.94628906 76.40576172 C-89.09986493 60.66758088 -81.9253255 46.2117286 -71.3125 34.3125 C-70.72597656 33.60738281 -70.13945313 32.90226562 -69.53515625 32.17578125 C-62.80492164 24.16359719 -54.96503306 18.12744952 -46.3125 12.3125 C-45.68988281 11.85875 -45.06726563 11.405 -44.42578125 10.9375 C-31.75980514 2.14549923 -15.02527067 -0.07992165 0 0 Z " fill="#94C13B" transform="translate(139.3125,58.6875)"/>
<path d="M0 0 C1.28841797 -0.020625 2.57683594 -0.04125 3.90429688 -0.0625 C5.75958008 -0.07023438 5.75958008 -0.07023438 7.65234375 -0.078125 C8.78534912 -0.0874707 9.91835449 -0.09681641 11.08569336 -0.10644531 C14.38757135 0.28892431 15.73362576 0.91394105 18.0625 3.25 C19.31683458 7.01300374 19.16945422 10.52210909 19.125 14.4375 C19.12048828 15.18708984 19.11597656 15.93667969 19.11132812 16.70898438 C19.09956354 18.55602383 19.08162865 20.40302213 19.0625 22.25 C20.24328125 22.21519531 21.4240625 22.18039063 22.640625 22.14453125 C24.19790242 22.11638768 25.75519525 22.08908813 27.3125 22.0625 C28.08980469 22.03736328 28.86710937 22.01222656 29.66796875 21.98632812 C33.14659859 21.94173031 35.43531244 21.9156972 38.546875 23.57421875 C42.46012546 27.90098279 41.28660939 34.53708212 41.3125 40 C41.333125 41.0725 41.35375 42.145 41.375 43.25 C41.38273437 44.82007813 41.38273437 44.82007813 41.390625 46.421875 C41.3999707 47.3715918 41.40931641 48.32130859 41.41894531 49.29980469 C41.0625 52.25 41.0625 52.25 38.0625 59.25 C31.7925 59.58 25.5225 59.91 19.0625 60.25 C19.10375 62.250625 19.145 64.25125 19.1875 66.3125 C19.1764238 71.39647374 19.13487903 75.58714719 17.0625 80.25 C11.94671498 83.77379436 4.99096203 82.57738068 -0.9375 82.5625 C-2.86335938 82.58666992 -2.86335938 82.58666992 -4.828125 82.61132812 C-6.67664063 82.61229492 -6.67664063 82.61229492 -8.5625 82.61328125 C-9.68914062 82.61626221 -10.81578125 82.61924316 -11.9765625 82.62231445 C-15.27773775 82.2072178 -16.6655613 81.66334287 -18.9375 79.25 C-19.48339844 77.25708008 -19.48339844 77.25708008 -19.546875 75.01953125 C-19.57910156 74.21708984 -19.61132812 73.41464844 -19.64453125 72.58789062 C-19.65871094 71.75451172 -19.67289063 70.92113281 -19.6875 70.0625 C-19.71714844 69.21751953 -19.74679688 68.37253906 -19.77734375 67.50195312 C-19.8479699 65.41848178 -19.89500795 63.33423494 -19.9375 61.25 C-21.20207031 61.14042969 -22.46664062 61.03085938 -23.76953125 60.91796875 C-25.42975486 60.75851225 -27.08990767 60.59831749 -28.75 60.4375 C-29.58337891 60.36724609 -30.41675781 60.29699219 -31.27539062 60.22460938 C-32.07783203 60.14404297 -32.88027344 60.06347656 -33.70703125 59.98046875 C-34.81461792 59.87835083 -34.81461792 59.87835083 -35.94458008 59.77416992 C-38.53933534 59.09170765 -39.43534548 58.48982488 -40.9375 56.25 C-41.30981445 53.203125 -41.30981445 53.203125 -41.30078125 49.5 C-41.30127975 48.84547852 -41.30177826 48.19095703 -41.30229187 47.51660156 C-41.29995457 46.13473469 -41.29024615 44.75286331 -41.27368164 43.37109375 C-41.2500829 41.25742476 -41.2531232 39.14501732 -41.25976562 37.03125 C-41.21675898 26.66888847 -41.21675898 26.66888847 -38.9375 23.25 C-36.23033758 22.34761253 -34.69973232 22.13148698 -31.92578125 22.15234375 C-30.78979492 22.15717773 -30.78979492 22.15717773 -29.63085938 22.16210938 C-28.84517578 22.17048828 -28.05949219 22.17886719 -27.25 22.1875 C-26.45271484 22.19201172 -25.65542969 22.19652344 -24.83398438 22.20117188 C-22.86845743 22.2129415 -20.90296915 22.23087652 -18.9375 22.25 C-18.96070312 20.98542969 -18.98390625 19.72085938 -19.0078125 18.41796875 C-19.02657126 16.7578184 -19.04477135 15.09766167 -19.0625 13.4375 C-19.07925781 12.60412109 -19.09601563 11.77074219 -19.11328125 10.91210938 C-19.11972656 10.10966797 -19.12617187 9.30722656 -19.1328125 8.48046875 C-19.14328613 7.74207764 -19.15375977 7.00368652 -19.16455078 6.24291992 C-18.9375 4.25 -18.9375 4.25 -16.9375 1.25 C-11.51578669 -0.55723777 -5.67334832 0.0226368 0 0 Z M-23.9375 31.25 C-24.72032648 33.04199472 -24.72032648 33.04199472 -24.9375 35.25 C-23.97292166 36.60917857 -22.96895371 37.94084721 -21.9375 39.25 C-21.54578247 40.90391846 -21.21692455 42.57345271 -20.9375 44.25 C-20.29360218 46.25744615 -19.63187747 48.25945124 -18.9375 50.25 C-17.6175 49.92 -16.2975 49.59 -14.9375 49.25 C-16.09944152 42.78287812 -18.0623748 37.15377651 -20.9375 31.25 C-21.9275 31.25 -22.9175 31.25 -23.9375 31.25 Z M-9.9375 31.25 C-9.6075 33.23 -9.2775 35.21 -8.9375 37.25 C-7.6175 37.25 -6.2975 37.25 -4.9375 37.25 C-4.2775 39.56 -3.6175 41.87 -2.9375 44.25 C-1.6175 44.25 -0.2975 44.25 1.0625 44.25 C0.4203757 41.27348631 -0.55470822 38.77216183 -1.9375 36.0625 C-2.288125 35.36769531 -2.63875 34.67289063 -3 33.95703125 C-3.82144401 32.27292237 -3.82144401 32.27292237 -4.9375 31.25 C-6.60367115 31.20936168 -8.27138095 31.207279 -9.9375 31.25 Z M5.0625 31.25 C4.68031233 32.90614657 4.34854898 34.57457024 4.0625 36.25 C4.3925 36.58 4.7225 36.91 5.0625 37.25 C5.29731693 39.43292774 5.47613323 41.62203174 5.625 43.8125 C5.70878906 45.01003906 5.79257813 46.20757812 5.87890625 47.44140625 C5.93949219 48.36824219 6.00007813 49.29507813 6.0625 50.25 C7.3825 49.92 8.7025 49.59 10.0625 49.25 C10.0625 43.31 10.0625 37.37 10.0625 31.25 C8.4125 31.25 6.7625 31.25 5.0625 31.25 Z M18.0625 32.25 C15.71276182 34.14755144 15.71276182 34.14755144 15.9375 37.375 C15.97875 38.32375 16.02 39.2725 16.0625 40.25 C17.7021875 40.9615625 17.7021875 40.9615625 19.375 41.6875 C19.98988281 41.95433594 20.60476562 42.22117187 21.23828125 42.49609375 C22.81961021 43.14961942 24.43925406 43.70891802 26.0625 44.25 C26.3925 45.9 26.7225 47.55 27.0625 49.25 C28.66664215 48.06476003 28.66664215 48.06476003 30.0625 46.25 C30.18762823 43.67437268 30.18762823 43.67437268 30.0625 41.25 C29.36382812 40.93546875 28.66515625 40.6209375 27.9453125 40.296875 C27.03523438 39.86890625 26.12515625 39.4409375 25.1875 39 C23.83011719 38.37351562 23.83011719 38.37351562 22.4453125 37.734375 C19.86277811 36.12558308 19.10642814 35.05780672 18.0625 32.25 Z M-28.9375 41.25 C-28.9375 42.24 -28.9375 43.23 -28.9375 44.25 C-28.2775 44.25 -27.6175 44.25 -26.9375 44.25 C-27.2675 43.26 -27.5975 42.27 -27.9375 41.25 C-28.2675 41.25 -28.5975 41.25 -28.9375 41.25 Z M-29.9375 45.25 C-28.9375 47.25 -28.9375 47.25 -28.9375 47.25 Z M-8.9375 46.25 C-7.9375 49.25 -7.9375 49.25 -7.9375 49.25 Z M-30.9375 47.25 C-29.9375 49.25 -29.9375 49.25 -29.9375 49.25 Z " fill="#EE1C22" transform="translate(139.9375,130.75)"/>
<path d="M0 0 C1.28841797 -0.020625 2.57683594 -0.04125 3.90429688 -0.0625 C5.75958008 -0.07023438 5.75958008 -0.07023438 7.65234375 -0.078125 C8.78534912 -0.0874707 9.91835449 -0.09681641 11.08569336 -0.10644531 C14.38757135 0.28892431 15.73362576 0.91394105 18.0625 3.25 C19.31683458 7.01300374 19.16945422 10.52210909 19.125 14.4375 C19.12048828 15.18708984 19.11597656 15.93667969 19.11132812 16.70898438 C19.09956354 18.55602383 19.08162865 20.40302213 19.0625 22.25 C20.24328125 22.21519531 21.4240625 22.18039063 22.640625 22.14453125 C24.19790242 22.11638768 25.75519525 22.08908813 27.3125 22.0625 C28.08980469 22.03736328 28.86710937 22.01222656 29.66796875 21.98632812 C33.14659859 21.94173031 35.43531244 21.9156972 38.546875 23.57421875 C42.46012546 27.90098279 41.28660939 34.53708212 41.3125 40 C41.333125 41.0725 41.35375 42.145 41.375 43.25 C41.40522592 49.38586145 41.00563652 53.82843273 38.0625 59.25 C37.4025 58.59 36.7425 57.93 36.0625 57.25 C36.7225 57.25 37.3825 57.25 38.0625 57.25 C38.0625 46.69 38.0625 36.13 38.0625 25.25 C31.57018012 25.36862078 31.57018012 25.36862078 25.07861328 25.52026367 C24.27149902 25.52775635 23.46438477 25.53524902 22.6328125 25.54296875 C21.39168701 25.56653442 21.39168701 25.56653442 20.12548828 25.59057617 C19.44470215 25.47818604 18.76391602 25.3657959 18.0625 25.25 C15.58205685 21.52933528 15.61868827 18.38459526 15.4375 14.0625 C15.37949219 12.93811523 15.37949219 12.93811523 15.3203125 11.79101562 C15.22621784 9.94440801 15.14327681 8.0972381 15.0625 6.25 C8.33118197 5.37320268 1.78263913 5.12662809 -5 5.1875 C-8.279375 5.208125 -11.55875 5.22875 -14.9375 5.25 C-14.9375 12.18 -14.9375 19.11 -14.9375 26.25 C-15.5975 26.25 -16.2575 26.25 -16.9375 26.25 C-16.9375 28.89 -16.9375 31.53 -16.9375 34.25 C-15.4525 34.745 -15.4525 34.745 -13.9375 35.25 C-13.9375 33.27 -13.9375 31.29 -13.9375 29.25 C-10.01453567 27.94234522 -7.07747567 28.0528583 -2.9375 28.25 C-2.2775 28.91 -1.6175 29.57 -0.9375 30.25 C1.84487655 29.84471099 1.84487655 29.84471099 4.0625 28.25 C7.72594611 28.11431681 10.56865721 28.08538574 14.0625 29.25 C14.0625 29.91 14.0625 30.57 14.0625 31.25 C15.0525 30.92 16.0425 30.59 17.0625 30.25 C18.95720816 30.1814505 20.8541834 30.16519628 22.75 30.1875 C23.74386719 30.19652344 24.73773438 30.20554688 25.76171875 30.21484375 C26.90060547 30.23224609 26.90060547 30.23224609 28.0625 30.25 C30.0625 36 30.0625 36 30.0625 38.25 C30.413125 38.806875 30.76375 39.36375 31.125 39.9375 C32.5928173 43.55811602 32.31310819 45.5639969 31.0625 49.25 C27.62554584 51.73420506 24.00593905 53.55822489 19.72265625 52.87890625 C18.84480469 52.67136719 17.96695313 52.46382812 17.0625 52.25 C14.62744763 52.03301513 12.18948616 51.84709255 9.75 51.6875 C8.49574219 51.60371094 7.24148437 51.51992187 5.94921875 51.43359375 C4.52029297 51.34271484 4.52029297 51.34271484 3.0625 51.25 C3.0625 50.59 3.0625 49.93 3.0625 49.25 C0.71078869 49.84861742 -1.6234378 50.51924352 -3.9375 51.25 C-4.4325 52.24 -4.4325 52.24 -4.9375 53.25 C-9.5575 53.25 -14.1775 53.25 -18.9375 53.25 C-18.9375 52.59 -18.9375 51.93 -18.9375 51.25 C-19.5975 51.25 -20.2575 51.25 -20.9375 51.25 C-21.2675 49.93 -21.5975 48.61 -21.9375 47.25 C-23.5875 47.25 -25.2375 47.25 -26.9375 47.25 C-27.5975 48.57 -28.2575 49.89 -28.9375 51.25 C-30.5875 51.25 -32.2375 51.25 -33.9375 51.25 C-34.2675 48.61 -34.5975 45.97 -34.9375 43.25 C-34.2775 43.25 -33.6175 43.25 -32.9375 43.25 C-33.4325 41.765 -33.4325 41.765 -33.9375 40.25 C-33.6075 39.26 -33.2775 38.27 -32.9375 37.25 C-32.2775 37.25 -31.6175 37.25 -30.9375 37.25 C-30.4425 32.795 -30.4425 32.795 -29.9375 28.25 C-31.9175 28.25 -33.8975 28.25 -35.9375 28.25 C-36.5975 37.49 -37.2575 46.73 -37.9375 56.25 C-31.72984728 56.53922373 -31.72984728 56.53922373 -25.52172852 56.81811523 C-24.36821899 56.8752771 -24.36821899 56.8752771 -23.19140625 56.93359375 C-22.40064697 56.97025146 -21.6098877 57.00690918 -20.79516602 57.04467773 C-18.9375 57.25 -18.9375 57.25 -17.9375 58.25 C-17.79325512 59.64021577 -17.71062811 61.03697301 -17.65625 62.43359375 C-17.61886719 63.27857422 -17.58148438 64.12355469 -17.54296875 64.99414062 C-17.49076172 66.32735352 -17.49076172 66.32735352 -17.4375 67.6875 C-17.36871724 69.4363654 -17.29598817 71.18508138 -17.21875 72.93359375 C-17.18845703 73.71275146 -17.15816406 74.49190918 -17.12695312 75.29467773 C-17.04798278 77.32809366 -17.04798278 77.32809366 -15.9375 79.25 C-5.7075 79.58 4.5225 79.91 15.0625 80.25 C14.5675 76.29 14.5675 76.29 14.0625 72.25 C14.14055395 69.91341716 14.28178005 67.5776795 14.5 65.25 C14.60183594 64.115625 14.70367187 62.98125 14.80859375 61.8125 C14.89238281 60.966875 14.97617188 60.12125 15.0625 59.25 C17.375 58.625 17.375 58.625 20.0625 58.25 C21.0525 58.91 22.0425 59.57 23.0625 60.25 C21.7425 60.25 20.4225 60.25 19.0625 60.25 C19.08570313 61.10722656 19.10890625 61.96445313 19.1328125 62.84765625 C19.32706179 75.15473598 19.32706179 75.15473598 17.0625 80.25 C11.94671498 83.77379436 4.99096203 82.57738068 -0.9375 82.5625 C-2.86335938 82.58666992 -2.86335938 82.58666992 -4.828125 82.61132812 C-6.67664063 82.61229492 -6.67664063 82.61229492 -8.5625 82.61328125 C-9.68914062 82.61626221 -10.81578125 82.61924316 -11.9765625 82.62231445 C-15.27773775 82.2072178 -16.6655613 81.66334287 -18.9375 79.25 C-19.48339844 77.25708008 -19.48339844 77.25708008 -19.546875 75.01953125 C-19.57910156 74.21708984 -19.61132812 73.41464844 -19.64453125 72.58789062 C-19.65871094 71.75451172 -19.67289063 70.92113281 -19.6875 70.0625 C-19.71714844 69.21751953 -19.74679688 68.37253906 -19.77734375 67.50195312 C-19.8479699 65.41848178 -19.89500795 63.33423494 -19.9375 61.25 C-21.20207031 61.14042969 -22.46664062 61.03085938 -23.76953125 60.91796875 C-25.42975486 60.75851225 -27.08990767 60.59831749 -28.75 60.4375 C-29.58337891 60.36724609 -30.41675781 60.29699219 -31.27539062 60.22460938 C-32.07783203 60.14404297 -32.88027344 60.06347656 -33.70703125 59.98046875 C-34.81461792 59.87835083 -34.81461792 59.87835083 -35.94458008 59.77416992 C-38.53933534 59.09170765 -39.43534548 58.48982488 -40.9375 56.25 C-41.30981445 53.203125 -41.30981445 53.203125 -41.30078125 49.5 C-41.30127975 48.84547852 -41.30177826 48.19095703 -41.30229187 47.51660156 C-41.29995457 46.13473469 -41.29024615 44.75286331 -41.27368164 43.37109375 C-41.2500829 41.25742476 -41.2531232 39.14501732 -41.25976562 37.03125 C-41.21675898 26.66888847 -41.21675898 26.66888847 -38.9375 23.25 C-36.23033758 22.34761253 -34.69973232 22.13148698 -31.92578125 22.15234375 C-30.78979492 22.15717773 -30.78979492 22.15717773 -29.63085938 22.16210938 C-28.84517578 22.17048828 -28.05949219 22.17886719 -27.25 22.1875 C-26.45271484 22.19201172 -25.65542969 22.19652344 -24.83398438 22.20117188 C-22.86845743 22.2129415 -20.90296915 22.23087652 -18.9375 22.25 C-18.96070312 20.98542969 -18.98390625 19.72085938 -19.0078125 18.41796875 C-19.02657126 16.7578184 -19.04477135 15.09766167 -19.0625 13.4375 C-19.07925781 12.60412109 -19.09601563 11.77074219 -19.11328125 10.91210938 C-19.11972656 10.10966797 -19.12617187 9.30722656 -19.1328125 8.48046875 C-19.14328613 7.74207764 -19.15375977 7.00368652 -19.16455078 6.24291992 C-18.9375 4.25 -18.9375 4.25 -16.9375 1.25 C-11.51578669 -0.55723777 -5.67334832 0.0226368 0 0 Z M-23.9375 31.25 C-24.72032648 33.04199472 -24.72032648 33.04199472 -24.9375 35.25 C-23.97292166 36.60917857 -22.96895371 37.94084721 -21.9375 39.25 C-21.54578247 40.90391846 -21.21692455 42.57345271 -20.9375 44.25 C-20.29360218 46.25744615 -19.63187747 48.25945124 -18.9375 50.25 C-17.6175 49.92 -16.2975 49.59 -14.9375 49.25 C-16.09944152 42.78287812 -18.0623748 37.15377651 -20.9375 31.25 C-21.9275 31.25 -22.9175 31.25 -23.9375 31.25 Z M-9.9375 31.25 C-9.6075 33.23 -9.2775 35.21 -8.9375 37.25 C-7.6175 37.25 -6.2975 37.25 -4.9375 37.25 C-4.2775 39.56 -3.6175 41.87 -2.9375 44.25 C-1.6175 44.25 -0.2975 44.25 1.0625 44.25 C0.4203757 41.27348631 -0.55470822 38.77216183 -1.9375 36.0625 C-2.288125 35.36769531 -2.63875 34.67289063 -3 33.95703125 C-3.82144401 32.27292237 -3.82144401 32.27292237 -4.9375 31.25 C-6.60367115 31.20936168 -8.27138095 31.207279 -9.9375 31.25 Z M5.0625 31.25 C4.68031233 32.90614657 4.34854898 34.57457024 4.0625 36.25 C4.3925 36.58 4.7225 36.91 5.0625 37.25 C5.29731693 39.43292774 5.47613323 41.62203174 5.625 43.8125 C5.70878906 45.01003906 5.79257813 46.20757812 5.87890625 47.44140625 C5.93949219 48.36824219 6.00007813 49.29507813 6.0625 50.25 C7.3825 49.92 8.7025 49.59 10.0625 49.25 C10.0625 43.31 10.0625 37.37 10.0625 31.25 C8.4125 31.25 6.7625 31.25 5.0625 31.25 Z M18.0625 32.25 C15.71276182 34.14755144 15.71276182 34.14755144 15.9375 37.375 C15.97875 38.32375 16.02 39.2725 16.0625 40.25 C17.7021875 40.9615625 17.7021875 40.9615625 19.375 41.6875 C19.98988281 41.95433594 20.60476562 42.22117187 21.23828125 42.49609375 C22.81961021 43.14961942 24.43925406 43.70891802 26.0625 44.25 C26.3925 45.9 26.7225 47.55 27.0625 49.25 C28.66664215 48.06476003 28.66664215 48.06476003 30.0625 46.25 C30.18762823 43.67437268 30.18762823 43.67437268 30.0625 41.25 C29.36382812 40.93546875 28.66515625 40.6209375 27.9453125 40.296875 C27.03523438 39.86890625 26.12515625 39.4409375 25.1875 39 C23.83011719 38.37351562 23.83011719 38.37351562 22.4453125 37.734375 C19.86277811 36.12558308 19.10642814 35.05780672 18.0625 32.25 Z M-28.9375 41.25 C-28.9375 42.24 -28.9375 43.23 -28.9375 44.25 C-28.2775 44.25 -27.6175 44.25 -26.9375 44.25 C-27.2675 43.26 -27.5975 42.27 -27.9375 41.25 C-28.2675 41.25 -28.5975 41.25 -28.9375 41.25 Z M-29.9375 45.25 C-28.9375 47.25 -28.9375 47.25 -28.9375 47.25 Z M-8.9375 46.25 C-7.9375 49.25 -7.9375 49.25 -7.9375 49.25 Z M-30.9375 47.25 C-29.9375 49.25 -29.9375 49.25 -29.9375 49.25 Z " fill="#C92C31" transform="translate(139.9375,130.75)"/>
<path d="M0 0 C1.03705044 0.96152295 2.03111567 1.96982372 3 3 C5.10612477 4.80812624 7.22776553 6.59623598 9.35546875 8.37890625 C9.89816406 8.91386719 10.44085938 9.44882813 11 10 C11 10.66 11 11.32 11 12 C11.66 12 12.32 12 13 12 C13 13.32 13 14.64 13 16 C13.721875 16.2475 14.44375 16.495 15.1875 16.75 C18.84770837 18.37675927 21.61698443 20.60944756 24.43359375 23.44140625 C26.04288117 25.0426673 27.71241023 26.52464483 29.4375 28 C30.04980469 28.52464844 30.66210938 29.04929687 31.29296875 29.58984375 C33.04887874 31.08027988 33.04887874 31.08027988 35.25 32.5625 C37 34 37 34 38.5625 36.625 C39.83395748 39.30457197 39.83395748 39.30457197 43 40 C43.495 42.97 43.495 42.97 44 46 C44.66 46 45.32 46 46 46 C46.12375 46.639375 46.2475 47.27875 46.375 47.9375 C46.58125 48.618125 46.7875 49.29875 47 50 C47.66 50.33 48.32 50.66 49 51 C50.0703125 52.77734375 50.0703125 52.77734375 51.125 54.9375 C51.47820312 55.64777344 51.83140625 56.35804688 52.1953125 57.08984375 C53 59 53 59 53 61 C54.485 61.495 54.485 61.495 56 62 C61.1326846 68.51866175 63.05694854 74.91670178 64 83 C64.33 83.33 64.66 83.66 65 84 C66.06276937 98.21253084 65.5992192 112.7654819 60 126 C59.34 126 58.68 126 58 126 C59.64079242 127.64079242 61.77768765 127.60112342 64 128 C64 127.34 64 126.68 64 126 C65.32 126 66.64 126 68 126 C68.33 125.34 68.66 124.68 69 124 C69 128.20676616 66.78200116 130.10943294 64 133 C43.24882629 153 43.24882629 153 34 153 C34.60066906 147.79420144 38.68417775 144.24469673 42.3125 140.8125 C53.86371083 128.72402355 60.87440629 113.9239623 61.4375 97.125 C60.59954721 64.00764848 34.02011751 38.2169332 11.77783203 16.68457031 C4.01870754 8.51901753 4.01870754 8.51901753 -6 5 C-8.57087891 6.84362256 -8.57087891 6.84362256 -10.8125 9.4375 C-11.60269531 10.28183594 -12.39289063 11.12617187 -13.20703125 11.99609375 C-14.09455078 12.98802734 -14.09455078 12.98802734 -15 14 C-15.33 13.34 -15.66 12.68 -16 12 C-15.67 11.01 -15.34 10.02 -15 9 C-14.01 9 -13.02 9 -12 9 C-12.0825 8.236875 -12.165 7.47375 -12.25 6.6875 C-12 4 -12 4 -10.1875 2.25 C-6.73542545 0.27738597 -3.93811254 -0.39381125 0 0 Z " fill="#99B751" transform="translate(144,82)"/>
<path d="M0 0 C3.125 -0.1875 3.125 -0.1875 6 0 C2.53440626 4.19519242 -1.06505375 8.11235081 -4.9375 11.9375 C-9.17477103 16.13693825 -13.14496596 20.45121751 -17 25 C-17.87579459 26.01215809 -18.7521407 27.02383912 -19.62890625 28.03515625 C-35.80948418 46.7850509 -48.73555666 66.24979528 -47.22021484 91.83007812 C-46.67781695 97.17468173 -45.02013867 102.05486888 -43 107 C-42.566875 108.10021484 -42.566875 108.10021484 -42.125 109.22265625 C-39.80822027 114.42506788 -36.27495783 118.57733073 -32.609375 122.8984375 C-31 125 -31 125 -31 127 C-30.41605469 127.27070313 -29.83210938 127.54140625 -29.23046875 127.8203125 C-27.01116915 128.99409267 -25.23438838 130.26578326 -23.3125 131.875 C-22.71050781 132.36742187 -22.10851562 132.85984375 -21.48828125 133.3671875 C-19.79512501 135.22477098 -19.39815079 136.54739113 -19 139 C-32.7167445 137.36277577 -45.81445769 124.17824392 -54.3125 113.8125 C-55.55447215 112.21822695 -56.78893818 110.61787845 -58 109 C-57.01 108.505 -57.01 108.505 -56 108 C-55.34 108.33 -54.68 108.66 -54 109 C-54 109.99 -54 110.98 -54 112 C-53.01 112 -52.02 112 -51 112 C-50.67 112.66 -50.34 113.32 -50 114 C-49.175 114.474375 -48.35 114.94875 -47.5 115.4375 C-45 117 -45 117 -44 120 C-43.01 120.33 -42.02 120.66 -41 121 C-42.3089572 117.87802522 -42.3089572 117.87802522 -45 116 C-45 115.01 -45 114.02 -45 113 C-45.66 113 -46.32 113 -47 113 C-49.5915262 107.06108578 -50.40368295 102.45892714 -50 96 C-50.66 96 -51.32 96 -52 96 C-52.05855176 92.47923768 -52.0937806 88.9586024 -52.125 85.4375 C-52.14175781 84.44685547 -52.15851563 83.45621094 -52.17578125 82.43554688 C-52.22489049 75.04460646 -51.25244477 69.37097592 -48.125 62.625 C-47.77953125 61.86960938 -47.4340625 61.11421875 -47.078125 60.3359375 C-46.72234375 59.56507813 -46.3665625 58.79421875 -46 58 C-45.28884284 56.41793298 -44.58044624 54.83462177 -43.875 53.25 C-43.54371094 52.50878906 -43.21242188 51.76757812 -42.87109375 51.00390625 C-42.18140486 49.41731252 -41.54888814 47.80588036 -40.9375 46.1875 C-39.89789336 43.76175118 -38.79474576 41.93832542 -37 40 C-36.01 40 -35.02 40 -34 40 C-33.731875 39.2575 -33.46375 38.515 -33.1875 37.75 C-32.04723249 35.10938051 -30.90619694 33.14447156 -29 31 C-28.34 31 -27.68 31 -27 31 C-27 30.01 -27 29.02 -27 28 C-25.75 26.625 -25.75 26.625 -24 25 C-23.38125 24.21625 -22.7625 23.4325 -22.125 22.625 C-19.9042785 19.8817558 -17.52543996 17.46384386 -15 15 C-14.113125 14.071875 -13.22625 13.14375 -12.3125 12.1875 C-10 10 -10 10 -8 10 C-8 9.34 -8 8.68 -8 8 C-6.52295788 6.74772516 -5.04172601 5.49833478 -3.5078125 4.31640625 C-1.73237056 2.88235909 -1.73237056 2.88235909 0 0 Z " fill="#9ABB4E" transform="translate(122,96)"/>
<path d="M0 0 C1.21526367 -0.00193359 1.21526367 -0.00193359 2.45507812 -0.00390625 C3.30392578 -0.00003906 4.15277344 0.00382813 5.02734375 0.0078125 C6.26000977 0.00201172 6.26000977 0.00201172 7.51757812 -0.00390625 C13.07333212 0.00483609 18.45318821 0.43344835 23.96484375 1.1328125 C23.99457275 1.98045166 23.99457275 1.98045166 24.02490234 2.84521484 C24.12002611 5.39989247 24.22975433 7.95373791 24.33984375 10.5078125 C24.37078125 11.39726562 24.40171875 12.28671875 24.43359375 13.203125 C24.49160156 14.47929687 24.49160156 14.47929687 24.55078125 15.78125 C24.58220215 16.56677246 24.61362305 17.35229492 24.64599609 18.16162109 C24.80479025 20.36284189 24.80479025 20.36284189 26.96484375 22.1328125 C26.96484375 23.1228125 26.96484375 24.1128125 26.96484375 25.1328125 C24.98484375 26.1228125 24.98484375 26.1228125 22.96484375 27.1328125 C22.96484375 26.4728125 22.96484375 25.8128125 22.96484375 25.1328125 C21.34020533 25.07885772 19.71505834 25.04004055 18.08984375 25.0078125 C17.18492187 24.98460937 16.28 24.96140625 15.34765625 24.9375 C12.77677381 24.88956414 12.77677381 24.88956414 10.96484375 27.1328125 C7.42912946 26.59709821 7.42912946 26.59709821 5.96484375 25.1328125 C4.11196873 25.06054748 2.25650497 25.0490003 0.40234375 25.0703125 C-0.60957031 25.07933594 -1.62148437 25.08835938 -2.6640625 25.09765625 C-3.44652344 25.10925781 -4.22898437 25.12085938 -5.03515625 25.1328125 C-5.03515625 27.1128125 -5.03515625 29.0928125 -5.03515625 31.1328125 C-6.02515625 31.4628125 -7.01515625 31.7928125 -8.03515625 32.1328125 C-9.6424126 28.91829981 -9.0926381 25.69668714 -9.03515625 22.1328125 C-8.37515625 21.8028125 -7.71515625 21.4728125 -7.03515625 21.1328125 C-6.70515625 14.5328125 -6.37515625 7.9328125 -6.03515625 1.1328125 C-3.76892464 -0.00030331 -2.51437199 0.00389437 0 0 Z " fill="#ED1C22" transform="translate(131.03515625,134.8671875)"/>
<path d="M0 0 C1.2065625 0.0309375 1.2065625 0.0309375 2.4375 0.0625 C1.4475 0.7225 0.4575 1.3825 -0.5625 2.0625 C0.05027612 5.02425123 0.69122522 6.44308783 2.4375 9.0625 C2.79363097 10.72444453 3.12958308 12.390951 3.4375 14.0625 C3.7675 14.3925 4.0975 14.7225 4.4375 15.0625 C4.47813832 16.72867115 4.480221 18.39638095 4.4375 20.0625 C5.4275 19.7325 6.4175 19.4025 7.4375 19.0625 C6.7775 15.4325 6.1175 11.8025 5.4375 8.0625 C6.0975 8.0625 6.7575 8.0625 7.4375 8.0625 C8.0975 10.3725 8.7575 12.6825 9.4375 15.0625 C10.4275 15.0625 11.4175 15.0625 12.4375 15.0625 C12.7675 12.7525 13.0975 10.4425 13.4375 8.0625 C15.0875 7.7325 16.7375 7.4025 18.4375 7.0625 C19.4275 9.3725 20.4175 11.6825 21.4375 14.0625 C22.0975 14.0625 22.7575 14.0625 23.4375 14.0625 C22.46391685 9.730055 20.98624059 5.7263146 18.4375 2.0625 C15.8227733 0.93434635 15.8227733 0.93434635 13.4375 1.0625 C13.7675 3.0425 14.0975 5.0225 14.4375 7.0625 C13.7775 7.0625 13.1175 7.0625 12.4375 7.0625 C12.1075 4.7525 11.7775 2.4425 11.4375 0.0625 C14.4075 0.0625 17.3775 0.0625 20.4375 0.0625 C21.9225 3.5275 21.9225 3.5275 23.4375 7.0625 C24.7575 4.7525 26.0775 2.4425 27.4375 0.0625 C29.7475 0.0625 32.0575 0.0625 34.4375 0.0625 C35.50421952 3.26265856 35.38595472 4.94794294 35 8.25 C34.89816406 9.15105469 34.79632813 10.05210937 34.69140625 10.98046875 C34.60761719 11.66753906 34.52382812 12.35460937 34.4375 13.0625 C34.1075 13.0625 33.7775 13.0625 33.4375 13.0625 C33.4375 9.1025 33.4375 5.1425 33.4375 1.0625 C31.7875 1.0625 30.1375 1.0625 28.4375 1.0625 C28.394779 2.72861905 28.39686168 4.39632885 28.4375 6.0625 C28.9325 6.5575 28.9325 6.5575 29.4375 7.0625 C29.67177778 9.07844582 29.85086124 11.100974 30 13.125 C30.08378906 14.22972656 30.16757813 15.33445313 30.25390625 16.47265625 C30.31449219 17.32730469 30.37507813 18.18195313 30.4375 19.0625 C31.4275 19.0625 32.4175 19.0625 33.4375 19.0625 C32.9425 17.0825 32.9425 17.0825 32.4375 15.0625 C33.0975 15.0625 33.7575 15.0625 34.4375 15.0625 C34.9325 16.5475 34.9325 16.5475 35.4375 18.0625 C35.705625 17.423125 35.97375 16.78375 36.25 16.125 C37.4375 14.0625 37.4375 14.0625 40.4375 13.0625 C39.1175 12.0725 37.7975 11.0825 36.4375 10.0625 C36.71877421 8.58132199 37.01283732 7.10256751 37.3125 5.625 C37.47492188 4.80128906 37.63734375 3.97757813 37.8046875 3.12890625 C38.01351562 2.44699219 38.22234375 1.76507813 38.4375 1.0625 C41.08208379 -0.25979189 43.11511301 -0.03427194 46.0625 0 C47.56683594 0.01353516 47.56683594 0.01353516 49.1015625 0.02734375 C49.87242187 0.03894531 50.64328125 0.05054688 51.4375 0.0625 C53.4375 5.8125 53.4375 5.8125 53.4375 8.0625 C53.788125 8.619375 54.13875 9.17625 54.5 9.75 C55.9678173 13.37061602 55.68810819 15.3764969 54.4375 19.0625 C51.00054584 21.54670506 47.38093905 23.37072489 43.09765625 22.69140625 C42.21980469 22.48386719 41.34195313 22.27632812 40.4375 22.0625 C38.00244763 21.84551513 35.56448616 21.65959255 33.125 21.5 C31.87074219 21.41621094 30.61648437 21.33242187 29.32421875 21.24609375 C27.89529297 21.15521484 27.89529297 21.15521484 26.4375 21.0625 C26.4375 20.4025 26.4375 19.7425 26.4375 19.0625 C24.08578869 19.66111742 21.7515622 20.33174352 19.4375 21.0625 C19.1075 21.7225 18.7775 22.3825 18.4375 23.0625 C13.8175 23.0625 9.1975 23.0625 4.4375 23.0625 C4.4375 22.4025 4.4375 21.7425 4.4375 21.0625 C3.7775 21.0625 3.1175 21.0625 2.4375 21.0625 C2.1075 19.7425 1.7775 18.4225 1.4375 17.0625 C-0.2125 17.0625 -1.8625 17.0625 -3.5625 17.0625 C-4.2225 18.3825 -4.8825 19.7025 -5.5625 21.0625 C-7.2125 21.0625 -8.8625 21.0625 -10.5625 21.0625 C-10.2325 19.0825 -9.9025 17.1025 -9.5625 15.0625 C-8.5725 15.3925 -7.5825 15.7225 -6.5625 16.0625 C-6.2325 15.4025 -5.9025 14.7425 -5.5625 14.0625 C-6.2225 14.0625 -6.8825 14.0625 -7.5625 14.0625 C-7.5625 12.7425 -7.5625 11.4225 -7.5625 10.0625 C-6.9025 10.0625 -6.2425 10.0625 -5.5625 10.0625 C-5.42972656 9.42441406 -5.29695313 8.78632813 -5.16015625 8.12890625 C-4.98355469 7.30261719 -4.80695313 6.47632813 -4.625 5.625 C-4.45097656 4.80128906 -4.27695313 3.97757813 -4.09765625 3.12890625 C-3.31713345 0.11506273 -3.19062011 0.07782 0 0 Z M41.4375 2.0625 C39.08776182 3.96005144 39.08776182 3.96005144 39.3125 7.1875 C39.35375 8.13625 39.395 9.085 39.4375 10.0625 C41.0771875 10.7740625 41.0771875 10.7740625 42.75 11.5 C43.36488281 11.76683594 43.97976562 12.03367188 44.61328125 12.30859375 C46.19461021 12.96211942 47.81425406 13.52141802 49.4375 14.0625 C49.7675 15.7125 50.0975 17.3625 50.4375 19.0625 C52.04164215 17.87726003 52.04164215 17.87726003 53.4375 16.0625 C53.56262823 13.48687268 53.56262823 13.48687268 53.4375 11.0625 C52.73882812 10.74796875 52.04015625 10.4334375 51.3203125 10.109375 C50.41023438 9.68140625 49.50015625 9.2534375 48.5625 8.8125 C47.20511719 8.18601563 47.20511719 8.18601563 45.8203125 7.546875 C43.23777811 5.93808308 42.48142814 4.87030672 41.4375 2.0625 Z M-5.5625 11.0625 C-5.5625 12.0525 -5.5625 13.0425 -5.5625 14.0625 C-4.9025 14.0625 -4.2425 14.0625 -3.5625 14.0625 C-3.8925 13.0725 -4.2225 12.0825 -4.5625 11.0625 C-4.8925 11.0625 -5.2225 11.0625 -5.5625 11.0625 Z M14.4375 16.0625 C15.4375 19.0625 15.4375 19.0625 15.4375 19.0625 Z M-7.5625 17.0625 C-6.5625 19.0625 -6.5625 19.0625 -6.5625 19.0625 Z " fill="#B64853" transform="translate(116.5625,160.9375)"/>
<path d="M0 0 C0.33 0 0.66 0 1 0 C1.04898438 1.13179687 1.09796875 2.26359375 1.1484375 3.4296875 C1.22346514 4.91148339 1.29901297 6.393253 1.375 7.875 C1.4059375 8.62136719 1.436875 9.36773437 1.46875 10.13671875 C1.55643831 14.53473188 1.55643831 14.53473188 4 18 C6.86533203 18.11938883 9.6397605 18.13999417 12.5 18.0625 C20.75884434 17.87942217 20.75884434 17.87942217 23 19 C24.78612325 24.0085252 24.18438535 29.6361541 24.1875 34.875 C24.19974609 35.95136719 24.21199219 37.02773437 24.22460938 38.13671875 C24.23447749 43.47207934 24.19275727 48.02512778 22 53 C19.7722603 53.22307542 17.54268636 53.42788178 15.3125 53.625 C14.07113281 53.74101562 12.82976562 53.85703125 11.55078125 53.9765625 C8.07119831 53.99953004 6.07515279 53.54051631 3 52 C3.66 51.67 4.32 51.34 5 51 C5 50.01 5 49.02 5 48 C3.90300781 48.01160156 2.80601562 48.02320313 1.67578125 48.03515625 C0.22135588 48.04453964 -1.23307135 48.05363925 -2.6875 48.0625 C-3.40873047 48.07087891 -4.12996094 48.07925781 -4.87304688 48.08789062 C-8.74017954 48.10554877 -12.22390903 47.75521819 -16 47 C-17.485 47.495 -17.485 47.495 -19 48 C-20.9533956 48.25043533 -22.91307519 48.45375968 -24.875 48.625 C-26.41800781 48.76808594 -26.41800781 48.76808594 -27.9921875 48.9140625 C-30.8608817 48.99602519 -33.22478189 48.68612403 -36 48 C-36 47.01 -36 46.02 -36 45 C-35.34 45 -34.68 45 -34 45 C-34 45.66 -34 46.32 -34 47 C-33.360625 46.814375 -32.72125 46.62875 -32.0625 46.4375 C-27.92665389 45.84666484 -24.1148827 46.41728241 -20 47 C-19.67 45.35 -19.34 43.7 -19 42 C-18.67 42.66 -18.34 43.32 -18 44 C-15.03 43.505 -15.03 43.505 -12 43 C-12 43.66 -12 44.32 -12 45 C-11.05898437 44.98839844 -10.11796875 44.97679687 -9.1484375 44.96484375 C-7.90320313 44.95582031 -6.65796875 44.94679687 -5.375 44.9375 C-3.53035156 44.92009766 -3.53035156 44.92009766 -1.6484375 44.90234375 C2 45 2 45 5.2578125 45.59375 C8.95819661 46.14195505 10.8148536 44.80974227 14 43 C14.66 43 15.32 43 16 43 C16.27415488 37.38232902 16.27415488 37.38232902 15 32 C14.01 31.67 13.02 31.34 12 31 C12.66 30.67 13.32 30.34 14 30 C13.505 27.03 13.505 27.03 13 24 C6.565 24.495 6.565 24.495 0 25 C0.33 24.34 0.66 23.68 1 23 C1.66 23 2.32 23 3 23 C2.26330078 22.05060547 2.26330078 22.05060547 1.51171875 21.08203125 C-0.5567407 16.8649395 -0.32981561 13.31093273 -0.1875 8.6875 C-0.16719727 7.43356445 -0.16719727 7.43356445 -0.14648438 6.15429688 C-0.11131217 4.10258502 -0.05751048 2.05120725 0 0 Z " fill="#D4262E" transform="translate(155,137)"/>
<path d="M0 0 C1.13598633 0.00483398 1.13598633 0.00483398 2.29492188 0.00976562 C3.47344727 0.02233398 3.47344727 0.02233398 4.67578125 0.03515625 C5.47306641 0.03966797 6.27035156 0.04417969 7.09179688 0.04882812 C9.05732382 0.06059775 11.0228121 0.07853277 12.98828125 0.09765625 C12.98828125 1.08765625 12.98828125 2.07765625 12.98828125 3.09765625 C7.04828125 3.09765625 1.10828125 3.09765625 -5.01171875 3.09765625 C-5.34171875 13.32765625 -5.67171875 23.55765625 -6.01171875 34.09765625 C0.19593397 34.38687998 0.19593397 34.38687998 6.40405273 34.66577148 C7.55756226 34.72293335 7.55756226 34.72293335 8.734375 34.78125 C9.52513428 34.81790771 10.31589355 34.85456543 11.13061523 34.89233398 C12.98828125 35.09765625 12.98828125 35.09765625 13.98828125 36.09765625 C14.13252613 37.48787202 14.21515314 38.88462926 14.26953125 40.28125 C14.30691406 41.12623047 14.34429687 41.97121094 14.3828125 42.84179688 C14.43501953 44.17500977 14.43501953 44.17500977 14.48828125 45.53515625 C14.55706401 47.28402165 14.62979308 49.03273763 14.70703125 50.78125 C14.73732422 51.56040771 14.76761719 52.33956543 14.79882812 53.14233398 C14.87779847 55.17574991 14.87779847 55.17574991 15.98828125 57.09765625 C26.21828125 57.42765625 36.44828125 57.75765625 46.98828125 58.09765625 C46.49328125 54.13765625 46.49328125 54.13765625 45.98828125 50.09765625 C46.0663352 47.76107341 46.2075613 45.42533575 46.42578125 43.09765625 C46.52761719 41.96328125 46.62945312 40.82890625 46.734375 39.66015625 C46.81816406 38.81453125 46.90195313 37.96890625 46.98828125 37.09765625 C49.30078125 36.47265625 49.30078125 36.47265625 51.98828125 36.09765625 C52.97828125 36.75765625 53.96828125 37.41765625 54.98828125 38.09765625 C53.66828125 38.09765625 52.34828125 38.09765625 50.98828125 38.09765625 C51.01148438 38.95488281 51.0346875 39.81210938 51.05859375 40.6953125 C51.25284304 53.00239223 51.25284304 53.00239223 48.98828125 58.09765625 C43.87249623 61.62145061 36.91674328 60.42503693 30.98828125 60.41015625 C29.06242187 60.43432617 29.06242187 60.43432617 27.09765625 60.45898438 C25.24914062 60.45995117 25.24914062 60.45995117 23.36328125 60.4609375 C22.23664063 60.46391846 21.11 60.46689941 19.94921875 60.4699707 C16.6480435 60.05487405 15.26021995 59.51099912 12.98828125 57.09765625 C12.44238281 55.10473633 12.44238281 55.10473633 12.37890625 52.8671875 C12.34667969 52.06474609 12.31445312 51.26230469 12.28125 50.43554688 C12.26707031 49.60216797 12.25289062 48.76878906 12.23828125 47.91015625 C12.20863281 47.06517578 12.17898437 46.22019531 12.1484375 45.34960938 C12.07781135 43.26613803 12.0307733 41.18189119 11.98828125 39.09765625 C10.72371094 38.98808594 9.45914063 38.87851563 8.15625 38.765625 C6.49602639 38.6061685 4.83587358 38.44597374 3.17578125 38.28515625 C2.34240234 38.21490234 1.50902344 38.14464844 0.65039062 38.07226562 C-0.15205078 37.99169922 -0.95449219 37.91113281 -1.78125 37.828125 C-2.88883667 37.72600708 -2.88883667 37.72600708 -4.01879883 37.62182617 C-6.61355409 36.9393639 -7.50956423 36.33748113 -9.01171875 34.09765625 C-9.3840332 31.05078125 -9.3840332 31.05078125 -9.375 27.34765625 C-9.3754985 26.69313477 -9.37599701 26.03861328 -9.37651062 25.36425781 C-9.37417332 23.98239094 -9.3644649 22.60051956 -9.34790039 21.21875 C-9.32430165 19.10508101 -9.32734195 16.99267357 -9.33398438 14.87890625 C-9.29097773 4.51654472 -9.29097773 4.51654472 -7.01171875 1.09765625 C-4.30455633 0.19526878 -2.77395107 -0.02085677 0 0 Z " fill="#BD3F46" transform="translate(108.01171875,152.90234375)"/>
<path d="M0 0 C9.38435869 9.38435869 10.26669891 28.06985827 10.3125 40.6875 C10.16337683 55.78655716 7.47967258 69.26460708 0 82.5 C-0.33209473 83.08765137 -0.66418945 83.67530273 -1.00634766 84.28076172 C-2.98858523 87.64813041 -5.1119627 90.36982318 -8 93 C-8.495 90.525 -8.495 90.525 -9 88 C-8.38125 87.62875 -7.7625 87.2575 -7.125 86.875 C-4.4489404 84.51377094 -3.9063156 82.39868348 -3 79 C-2.01 79 -1.02 79 0 79 C0.33 75.04 0.66 71.08 1 67 C1.33 67 1.66 67 2 67 C2.93380961 62.46859347 2.93380961 62.46859347 2 58 C2.60183749 55.97954558 3.27306096 53.97888961 4 52 C4.98409149 48.76857185 5.12887171 45.83787982 5.1328125 42.46484375 C5.13410156 41.40845703 5.13539063 40.35207031 5.13671875 39.26367188 C5.13285156 38.16603516 5.12898437 37.06839844 5.125 35.9375 C5.12886719 34.83599609 5.13273438 33.73449219 5.13671875 32.59960938 C5.13542969 31.54451172 5.13414062 30.48941406 5.1328125 29.40234375 C5.13168457 28.43804443 5.13055664 27.47374512 5.12939453 26.48022461 C5.10343817 23.86636077 5.10343817 23.86636077 4 21 C3.73991333 18.72114537 3.55801822 16.44278577 3.37890625 14.15625 C3.09839599 11.71174301 3.09839599 11.71174301 1 9 C0.5859375 6.73828125 0.5859375 6.73828125 0.375 4.3125 C0.30023438 3.50425781 0.22546875 2.69601563 0.1484375 1.86328125 C0.09945312 1.24839844 0.05046875 0.63351563 0 0 Z " fill="#99B158" transform="translate(223,112)"/>
<path d="M0 0 C1.28841797 -0.020625 2.57683594 -0.04125 3.90429688 -0.0625 C5.75958008 -0.07023438 5.75958008 -0.07023438 7.65234375 -0.078125 C8.78534912 -0.0874707 9.91835449 -0.09681641 11.08569336 -0.10644531 C14.38757135 0.28892431 15.73362576 0.91394105 18.0625 3.25 C19.31683458 7.01300374 19.16945422 10.52210909 19.125 14.4375 C19.12048828 15.18708984 19.11597656 15.93667969 19.11132812 16.70898438 C19.09956354 18.55602383 19.08162865 20.40302213 19.0625 22.25 C20.24328125 22.21519531 21.4240625 22.18039063 22.640625 22.14453125 C24.19790242 22.11638768 25.75519525 22.08908813 27.3125 22.0625 C28.08980469 22.03736328 28.86710937 22.01222656 29.66796875 21.98632812 C33.14659859 21.94173031 35.43531244 21.9156972 38.546875 23.57421875 C42.46012546 27.90098279 41.28660939 34.53708212 41.3125 40 C41.333125 41.0725 41.35375 42.145 41.375 43.25 C41.40522592 49.38586145 41.00563652 53.82843273 38.0625 59.25 C37.4025 58.59 36.7425 57.93 36.0625 57.25 C36.7225 57.25 37.3825 57.25 38.0625 57.25 C38.0625 46.69 38.0625 36.13 38.0625 25.25 C31.57018012 25.36862078 31.57018012 25.36862078 25.07861328 25.52026367 C24.27149902 25.52775635 23.46438477 25.53524902 22.6328125 25.54296875 C21.39168701 25.56653442 21.39168701 25.56653442 20.12548828 25.59057617 C19.44470215 25.47818604 18.76391602 25.3657959 18.0625 25.25 C16.0484044 22.2288566 15.79413404 21.44339983 15.6484375 18.01953125 C15.59042969 16.81586914 15.59042969 16.81586914 15.53125 15.58789062 C15.5003125 14.75451172 15.469375 13.92113281 15.4375 13.0625 C15.37949219 11.7950293 15.37949219 11.7950293 15.3203125 10.50195312 C15.22613721 8.41832476 15.14323325 6.33419247 15.0625 4.25 C11.00570623 4.22522627 6.94894194 4.20710507 2.89208984 4.19506836 C1.51285027 4.19004882 0.13361598 4.18323181 -1.24560547 4.17456055 C-3.23142183 4.1623908 -5.21727749 4.15728367 -7.203125 4.15234375 C-8.39711914 4.14710693 -9.59111328 4.14187012 -10.82128906 4.13647461 C-14.12003302 4.14896901 -14.12003302 4.14896901 -17.9375 5.25 C-17.9375 10.86 -17.9375 16.47 -17.9375 22.25 C-18.2675 22.25 -18.5975 22.25 -18.9375 22.25 C-18.99140357 19.31225537 -19.0311255 16.37549768 -19.0625 13.4375 C-19.07925781 12.60412109 -19.09601563 11.77074219 -19.11328125 10.91210938 C-19.11972656 10.10966797 -19.12617187 9.30722656 -19.1328125 8.48046875 C-19.14328613 7.74207764 -19.15375977 7.00368652 -19.16455078 6.24291992 C-18.9375 4.25 -18.9375 4.25 -16.9375 1.25 C-11.51578669 -0.55723777 -5.67334832 0.0226368 0 0 Z " fill="#BF575D" transform="translate(139.9375,130.75)"/>
<path d="M0 0 C1.09248047 0.00064453 2.18496094 0.00128906 3.31054688 0.00195312 C8.40314861 0.0298493 13.16757784 0.2587426 18.1875 1.1875 C18.1875 1.8475 18.1875 2.5075 18.1875 3.1875 C16.99125 3.0225 15.795 2.8575 14.5625 2.6875 C-4.4875286 0.71782112 -28.7198785 2.22287248 -44.54296875 14.265625 C-45.29191406 14.89984375 -46.04085937 15.5340625 -46.8125 16.1875 C-50.5625 19.1875 -50.5625 19.1875 -52.8125 19.1875 C-53.1425 20.1775 -53.4725 21.1675 -53.8125 22.1875 C-56.02734375 24.01171875 -56.02734375 24.01171875 -58.75 25.875 C-59.64589844 26.49761719 -60.54179688 27.12023437 -61.46484375 27.76171875 C-63.8125 29.1875 -63.8125 29.1875 -65.8125 29.1875 C-66.21855469 30.03828125 -66.21855469 30.03828125 -66.6328125 30.90625 C-69.09525154 35.66805264 -72.01761572 40.44700615 -75.875 44.1875 C-78.95398774 47.36580992 -80.77789133 51.28505386 -82.8125 55.1875 C-83.4725 55.1875 -84.1325 55.1875 -84.8125 55.1875 C-83.44777847 50.24600831 -81.19853833 46.45963236 -78.1875 42.375 C-77.74164551 41.76261475 -77.29579102 41.15022949 -76.83642578 40.51928711 C-68.32213872 28.96982846 -58.69632716 20.1740462 -46.8125 12.1875 C-46.18988281 11.73375 -45.56726563 11.28 -44.92578125 10.8125 C-32.04365558 1.87046049 -15.24653176 -0.17398445 0 0 Z " fill="#A8BA73" transform="translate(139.8125,58.8125)"/>
<path d="M0 0 C0.66 0.33 1.32 0.66 2 1 C1.60006408 4.35946171 1.07473349 6.8567608 -0.5 9.875 C-2.34264507 13.71384389 -2.63582787 16.77560326 -3 21 C-3.66 21 -4.32 21 -5 21 C-4.67 31.89 -4.34 42.78 -4 54 C-3.34 54 -2.68 54 -2 54 C-1.90203125 54.81984375 -1.8040625 55.6396875 -1.703125 56.484375 C-1.55359375 57.56203125 -1.4040625 58.6396875 -1.25 59.75 C-1.11078125 60.81734375 -0.9715625 61.8846875 -0.828125 62.984375 C0.12168355 66.4431118 1.45308508 67.5763229 4 70 C4.25 73.75 4.25 73.75 4 77 C4.99 77.33 5.98 77.66 7 78 C7.33 79.98 7.66 81.96 8 84 C8.66 84 9.32 84 10 84 C10 85.98 10 87.96 10 90 C-1.33015173 79.15612088 -6.8712743 61.39644224 -7.2734375 45.95703125 C-7.59906219 29.50605602 -6.39387455 15.26761634 0 0 Z " fill="#9DB166" transform="translate(54,114)"/>
<path d="M0 0 C1.50433594 0.01353516 1.50433594 0.01353516 3.0390625 0.02734375 C3.80992187 0.03894531 4.58078125 0.05054688 5.375 0.0625 C7.375 5.8125 7.375 5.8125 7.375 8.0625 C7.725625 8.619375 8.07625 9.17625 8.4375 9.75 C9.82218071 13.16554574 9.28604698 15.54846163 8.375 19.0625 C6.01191422 21.16302069 4.52746243 21.0593237 1.375 21.125 C-2.28955671 19.82713616 -3.01322996 18.19509247 -4.6796875 14.78515625 C-5.90689867 12.54879209 -7.46502005 11.3739164 -9.625 10.0625 C-9.34372579 8.58132199 -9.04966268 7.10256751 -8.75 5.625 C-8.58757812 4.80128906 -8.42515625 3.97757813 -8.2578125 3.12890625 C-8.04898438 2.44699219 -7.84015625 1.76507813 -7.625 1.0625 C-4.98041621 -0.25979189 -2.94738699 -0.03427194 0 0 Z M-4.625 2.0625 C-6.97473818 3.96005144 -6.97473818 3.96005144 -6.75 7.1875 C-6.70875 8.13625 -6.6675 9.085 -6.625 10.0625 C-4.9853125 10.7740625 -4.9853125 10.7740625 -3.3125 11.5 C-2.69761719 11.76683594 -2.08273438 12.03367188 -1.44921875 12.30859375 C0.13211021 12.96211942 1.75175406 13.52141802 3.375 14.0625 C3.705 15.7125 4.035 17.3625 4.375 19.0625 C5.97914215 17.87726003 5.97914215 17.87726003 7.375 16.0625 C7.50012823 13.48687268 7.50012823 13.48687268 7.375 11.0625 C6.67632812 10.74796875 5.97765625 10.4334375 5.2578125 10.109375 C4.34773437 9.68140625 3.43765625 9.2534375 2.5 8.8125 C1.14261719 8.18601563 1.14261719 8.18601563 -0.2421875 7.546875 C-2.82472189 5.93808308 -3.58107186 4.87030672 -4.625 2.0625 Z " fill="#B94751" transform="translate(162.625,160.9375)"/>
<path d="M0 0 C0.99773437 0.00193359 1.99546875 0.00386719 3.0234375 0.00585938 C4.05984375 0.01810547 5.09625 0.03035156 6.1640625 0.04296875 C7.19273437 0.04361328 8.22140625 0.04425781 9.28125 0.04492188 C14.21922607 0.07355705 18.93854677 0.18869132 23.7890625 1.23046875 C23.1290625 1.89046875 22.4690625 2.55046875 21.7890625 3.23046875 C20.17664344 3.02704271 18.56494325 2.8096052 16.96435547 2.52783203 C12.62192232 1.93421996 8.22590973 2.12940269 3.8515625 2.16796875 C0.5309375 2.18859375 -2.7896875 2.20921875 -6.2109375 2.23046875 C-6.2109375 9.16046875 -6.2109375 16.09046875 -6.2109375 23.23046875 C-6.8709375 23.23046875 -7.5309375 23.23046875 -8.2109375 23.23046875 C-8.5409375 24.88046875 -8.8709375 26.53046875 -9.2109375 28.23046875 C-9.8709375 27.90046875 -10.5309375 27.57046875 -11.2109375 27.23046875 C-14.7109375 26.89713542 -14.7109375 26.89713542 -18.2109375 27.23046875 C-18.8709375 28.22046875 -19.5309375 29.21046875 -20.2109375 30.23046875 C-20.5409375 28.58046875 -20.8709375 26.93046875 -21.2109375 25.23046875 C-23.1909375 25.23046875 -25.1709375 25.23046875 -27.2109375 25.23046875 C-27.5409375 30.84046875 -27.8709375 36.45046875 -28.2109375 42.23046875 C-28.5409375 42.23046875 -28.8709375 42.23046875 -29.2109375 42.23046875 C-29.23783199 39.2720752 -29.25772491 36.31392448 -29.2734375 33.35546875 C-29.28181641 32.51371094 -29.29019531 31.67195313 -29.29882812 30.8046875 C-29.30205078 29.99902344 -29.30527344 29.19335938 -29.30859375 28.36328125 C-29.31383057 27.61965332 -29.31906738 26.87602539 -29.32446289 26.10986328 C-29.2109375 24.23046875 -29.2109375 24.23046875 -28.2109375 22.23046875 C-22.2709375 21.90046875 -16.3309375 21.57046875 -10.2109375 21.23046875 C-9.8809375 14.96046875 -9.5509375 8.69046875 -9.2109375 2.23046875 C-5.3660843 0.30804215 -4.07770796 -0.01852513 0 0 Z " fill="#DF222A" transform="translate(131.2109375,133.76953125)"/>
<path d="M0 0 C2.81256281 -0.02684312 5.62487241 -0.04676188 8.4375 -0.0625 C9.23994141 -0.07087891 10.04238281 -0.07925781 10.86914062 -0.08789062 C12.91295221 -0.0965143 14.95683902 -0.0522815 17 0 C18.83034055 1.83034055 18.13042797 4.73211992 18.1328125 7.1875 C18.13474609 9.07082031 18.13474609 9.07082031 18.13671875 10.9921875 C18.13357666 11.97783691 18.13357666 11.97783691 18.13037109 12.98339844 C18.12502234 14.99161335 18.13031691 16.99960459 18.13671875 19.0078125 C18.13542969 20.26335937 18.13414062 21.51890625 18.1328125 22.8125 C18.13168457 23.97394531 18.13055664 25.13539063 18.12939453 26.33203125 C18 29 18 29 17 30 C14.81360547 30.07258946 12.62499611 30.08373783 10.4375 30.0625 C8.64119141 30.04896484 8.64119141 30.04896484 6.80859375 30.03515625 C5.88175781 30.02355469 4.95492187 30.01195312 4 30 C4.33 29.01 4.66 28.02 5 27 C7.06640625 26.05078125 7.06640625 26.05078125 9.5625 25.3125 C10.38878906 25.06113281 11.21507812 24.80976563 12.06640625 24.55078125 C12.70449219 24.36902344 13.34257812 24.18726563 14 24 C14.495 19.545 14.495 19.545 15 15 C14.34 15 13.68 15 13 15 C11.5916196 10.14891195 12.3378954 5.92900094 13 1 C8.71 1 4.42 1 0 1 C0 0.67 0 0.34 0 0 Z " fill="#E61F24" transform="translate(159,157)"/>
<path d="M0 0 C-1.32 0.33 -2.64 0.66 -4 1 C-3.97679687 1.85722656 -3.95359375 2.71445313 -3.9296875 3.59765625 C-3.73543821 15.90473598 -3.73543821 15.90473598 -6 21 C-11.11578502 24.52379436 -18.07153797 23.32738068 -24 23.3125 C-25.92585938 23.33666992 -25.92585938 23.33666992 -27.890625 23.36132812 C-29.73914063 23.36229492 -29.73914063 23.36229492 -31.625 23.36328125 C-32.75164062 23.36626221 -33.87828125 23.36924316 -35.0390625 23.37231445 C-38.34023775 22.9572178 -39.7280613 22.41334287 -42 20 C-42.54589844 18.00708008 -42.54589844 18.00708008 -42.609375 15.76953125 C-42.64160156 14.96708984 -42.67382812 14.16464844 -42.70703125 13.33789062 C-42.72121094 12.50451172 -42.73539063 11.67113281 -42.75 10.8125 C-42.77964844 9.96751953 -42.80929688 9.12253906 -42.83984375 8.25195312 C-42.9104699 6.16848178 -42.95750795 4.08423494 -43 2 C-45.64 1.67 -48.28 1.34 -51 1 C-51 0.67 -51 0.34 -51 0 C-47.7 0 -44.4 0 -41 0 C-40.93941406 1.27617187 -40.87882812 2.55234375 -40.81640625 3.8671875 C-40.73200432 5.53647016 -40.64735614 7.20574037 -40.5625 8.875 C-40.52318359 9.71675781 -40.48386719 10.55851563 -40.44335938 11.42578125 C-40.38051758 12.63427734 -40.38051758 12.63427734 -40.31640625 13.8671875 C-40.27974854 14.61081543 -40.24309082 15.35444336 -40.20532227 16.12060547 C-40.10044135 18.08864312 -40.10044135 18.08864312 -39 20 C-28.77 20.33 -18.54 20.66 -8 21 C-8.495 17.04 -8.495 17.04 -9 13 C-8.96725792 10.68538666 -8.86792333 8.37030293 -8.6875 6.0625 C-8.60886719 4.93972656 -8.53023437 3.81695312 -8.44921875 2.66015625 C-8.30097656 1.78230469 -8.15273437 0.90445313 -8 0 C-5.13822943 -1.43088528 -3.06624227 -0.59991697 0 0 Z " fill="#C15055" transform="translate(163,190)"/>
<path d="M0 0 C24.65587515 4.98363434 44.99203279 21.59709124 59 42 C63 48.42809365 63 48.42809365 63 51 C59.35448119 49.78482706 59.19113672 48.9993094 57.5 45.6875 C56.23315802 43.23096348 55.02424152 41.03173124 53.34375 38.83203125 C52 37 52 37 52 35 C51.01 34.67 50.02 34.34 49 34 C47.28891311 32.37897032 45.62746694 30.70496537 44 29 C40.50307633 25.41341162 36.85379289 22.19782814 33 19 C32.0409375 17.948125 32.0409375 17.948125 31.0625 16.875 C28.35511923 14.41374475 25.34654992 13.42538237 22 12 C21.34 11.01 20.68 10.02 20 9 C17.91376189 8.27713724 17.91376189 8.27713724 15.5625 7.9375 C12.25724994 7.36575164 10.89491319 6.92994213 8 5 C6.00827818 4.30899447 4.00838196 3.64097297 2 3 C1.34 2.67 0.68 2.34 0 2 C0 1.34 0 0.68 0 0 Z " fill="#A2B668" transform="translate(160,61)"/>
<path d="M0 0 C4.17383395 3.92831431 7.89394426 8.16479983 11 13 C11 13.66 11 14.32 11 15 C11.58394531 15.27070313 12.16789062 15.54140625 12.76953125 15.8203125 C14.98883085 16.99409267 16.76561162 18.26578326 18.6875 19.875 C19.28949219 20.36742187 19.89148438 20.85984375 20.51171875 21.3671875 C22.20487499 23.22477098 22.60184921 24.54739113 23 27 C13.40913753 25.91557062 5.93906672 19.32226079 -1 13 C-0.01 12.67 0.98 12.34 2 12 C2 11.34 2 10.68 2 10 C2.66 10 3.32 10 4 10 C3.72382467 8.05925139 3.72382467 8.05925139 3 6 C2.01 5.34 1.02 4.68 0 4 C0 2.68 0 1.36 0 0 Z " fill="#9CB558" transform="translate(80,208)"/>
<path d="M0 0 C0.33 -0.66 0.66 -1.32 1 -2 C1.495 -0.515 1.495 -0.515 2 1 C2.99 1.495 2.99 1.495 4 2 C2.83428467 1.99476318 1.66856934 1.98952637 0.4675293 1.98413086 C-3.85424025 1.96604129 -8.17600644 1.95455347 -12.49780273 1.94506836 C-14.36890221 1.94003721 -16.23999775 1.93321165 -18.11108398 1.92456055 C-20.79932628 1.91244171 -23.48751664 1.90675953 -26.17578125 1.90234375 C-27.01337479 1.89718246 -27.85096832 1.89202118 -28.71394348 1.88670349 C-32.06375742 1.88637936 -34.79946456 1.93315485 -38 3 C-40.33299825 3.03954234 -42.66708189 3.04401732 -45 3 C-45.33 3.99 -45.66 4.98 -46 6 C-51.15249492 9.14176519 -56.94152313 11 -63 11 C-47.29159969 -2.19282019 -19.34904718 -5.33766819 0 0 Z " fill="#99B84F" transform="translate(158,62)"/>
<path d="M0 0 C0.33 0.99 0.66 1.98 1 3 C1.66 3.33 2.32 3.66 3 4 C3 9.61 3 15.22 3 21 C7.12525788 20.85970541 11.25011392 20.71302689 15.375 20.5625 C16.550625 20.52318359 17.72625 20.48386719 18.9375 20.44335938 C20.05898437 20.40146484 21.18046875 20.35957031 22.3359375 20.31640625 C23.37282715 20.27974854 24.4097168 20.24309082 25.47802734 20.20532227 C27.99425166 20.15835777 27.99425166 20.15835777 30 19 C30.66 19.66 31.32 20.32 32 21 C31.67 21.66 31.34 22.32 31 23 C26.62178091 23.0740719 22.24389218 23.12856375 17.86523438 23.16479492 C16.37526091 23.179896 14.88533199 23.20037858 13.39550781 23.22631836 C11.2557477 23.26264584 9.11657434 23.27971221 6.9765625 23.29296875 C5.68830566 23.3086792 4.40004883 23.32438965 3.07275391 23.34057617 C1.55174072 23.17199097 1.55174072 23.17199097 0 23 C-2.10209857 19.84685215 -2.2434761 19.13896919 -2.1953125 15.55078125 C-2.18886719 14.70322266 -2.18242188 13.85566406 -2.17578125 12.98242188 C-2.15902344 12.10134766 -2.14226562 11.22027344 -2.125 10.3125 C-2.11597656 9.41982422 -2.10695313 8.52714844 -2.09765625 7.60742188 C-2.07409748 5.40467686 -2.04120329 3.20247412 -2 1 C-1.34 0.67 -0.68 0.34 0 0 Z " fill="#CE272D" transform="translate(124,188)"/>
<path d="M0 0 C1.94158017 3.51624755 2.18311068 5.9715651 2 10 C2.66 10 3.32 10 4 10 C6.48506571 13.31342095 8.00694998 16.02779993 9 20 C9.99 20.66 10.98 21.32 12 22 C12 23.32 12 24.64 12 26 C11.34 26 10.68 26 10 26 C10 26.66 10 27.32 10 28 C7.9375 28.4375 7.9375 28.4375 5 28 C-0.28202094 23.98320733 -4.19421757 18.36712907 -8 13 C-7.34 12.67 -6.68 12.34 -6 12 C-5.34 12.33 -4.68 12.66 -4 13 C-4 13.99 -4 14.98 -4 16 C-3.01 16 -2.02 16 -1 16 C-0.67 16.66 -0.34 17.32 0 18 C0.825 18.474375 1.65 18.94875 2.5 19.4375 C5 21 5 21 6 24 C6.99 24.33 7.98 24.66 9 25 C7.6910428 21.87802522 7.6910428 21.87802522 5 20 C5 19.01 5 18.02 5 17 C4.34 17 3.68 17 3 17 C0.4084738 11.06108578 -0.40368295 6.45892714 0 0 Z " fill="#95BA49" transform="translate(72,192)"/>
<path d="M0 0 C6.05540924 5.22018038 7.21746888 11.43553249 8 19 C8.33 19.33 8.66 19.66 9 20 C10.06276937 34.21253084 9.5992192 48.7654819 4 62 C2.68 62 1.36 62 0 62 C0.98538878 59.34703021 1.94237799 57.08297569 3.5625 54.75 C8.66261928 44.99325006 7.41110781 26.81057069 4.5625 16.5 C4.05671414 14.99485947 3.53793438 13.49395247 3 12 C2.64972534 10.67101672 2.31595839 9.33755717 2 8 C1.82339844 7.29359375 1.64679688 6.5871875 1.46484375 5.859375 C0.9765625 3.90625 0.48828125 1.953125 0 0 Z " fill="#9AB54C" transform="translate(200,146)"/>
<path d="M0 0 C1.32 0.33 2.64 0.66 4 1 C3.62230469 1.42667969 3.24460938 1.85335937 2.85546875 2.29296875 C0.89424114 4.52059261 -1.05440546 6.75870197 -3 9 C-3.42845215 9.49290527 -3.8569043 9.98581055 -4.29833984 10.49365234 C-14.20977701 21.93155684 -22.08699853 33.53311403 -29 47 C-29.66 47 -30.32 47 -31 47 C-30.57476184 45.39253944 -30.13429874 43.78910164 -29.6875 42.1875 C-29.44386719 41.29417969 -29.20023437 40.40085938 -28.94921875 39.48046875 C-27.96416304 36.90635198 -26.99197871 35.83176594 -25 34 C-24.67 33.13375 -24.34 32.2675 -24 31.375 C-23.67 30.59125 -23.34 29.8075 -23 29 C-22.01 28.67 -21.02 28.34 -20 28 C-19.26676204 25.98491642 -19.26676204 25.98491642 -19 24 C-18.34 24 -17.68 24 -17 24 C-16.01 20.535 -16.01 20.535 -15 17 C-14.071875 16.87625 -14.071875 16.87625 -13.125 16.75 C-10.85973865 16.20746992 -10.85973865 16.20746992 -9.9375 14.1875 C-9.628125 13.465625 -9.31875 12.74375 -9 12 C-7.5 9.75 -7.5 9.75 -6 8 C-5.34 8 -4.68 8 -4 8 C-3.71125 7.236875 -3.4225 6.47375 -3.125 5.6875 C-2 3 -2 3 0 0 Z " fill="#ACBA79" transform="translate(108,112)"/>
<path d="M0 0 C0.33 1.32 0.66 2.64 1 4 C0.01 4.33 -0.98 4.66 -2 5 C-2 5.99 -2 6.98 -2 8 C-1.01 8 -0.02 8 1 8 C1 7.34 1 6.68 1 6 C3.25 3.3125 3.25 3.3125 6 1 C8.3125 1.1875 8.3125 1.1875 10 2 C4.40139436 8.15846621 -2.70124022 13.03850209 -10 17 C-10.99 17 -11.98 17 -13 17 C-12.28599577 10.81196334 -6.2214866 6.10739236 -2 2 C-1.34 1.34 -0.68 0.68 0 0 Z " fill="#9AAB65" transform="translate(191,218)"/>
<path d="M0 0 C3.74380795 3.74380795 4.11149453 8.65578524 4.23046875 13.7421875 C4.22652637 15.45318041 4.21201404 17.16417817 4.1875 18.875 C4.18685547 19.72191406 4.18621094 20.56882813 4.18554688 21.44140625 C4.07509396 37.4693511 4.07509396 37.4693511 0.5 42.25 C-1.52361479 45.16587146 -2.66115405 47.38564323 -3 51 C-3.66 51 -4.32 51 -5 51 C-5.268125 51.763125 -5.53625 52.52625 -5.8125 53.3125 C-6.94424112 55.87380884 -7.91223401 57.19692938 -10 59 C-10 54.39667518 -8.5104218 52.07781185 -6.1875 48.3125 C0.9409325 36.31393239 4.02789249 23.49726871 1.55078125 9.453125 C1.06663377 7.62641254 0.5368651 5.81191972 0 4 C0 2.68 0 1.36 0 0 Z " fill="#A4B16F" transform="translate(203,160)"/>
<path d="M0 0 C3 0.125 3 0.125 4 1.125 C4.26293056 5.15660191 4.29404844 6.68392734 2 10.125 C1.34 10.125 0.68 10.125 0 10.125 C0.020625 11.011875 0.04125 11.89875 0.0625 12.8125 C0.00667897 15.77101466 -0.18873077 18.2855577 -1 21.125 C-1.66 21.455 -2.32 21.785 -3 22.125 C-3 21.465 -3 20.805 -3 20.125 C-3.66 20.125 -4.32 20.125 -5 20.125 C-4.86177801 16.97878318 -4.71314916 13.83314434 -4.5625 10.6875 C-4.52318359 9.78966797 -4.48386719 8.89183594 -4.44335938 7.96679688 C-4.40146484 7.11279297 -4.35957031 6.25878906 -4.31640625 5.37890625 C-4.27974854 4.58814697 -4.24309082 3.7973877 -4.20532227 2.98266602 C-3.85691262 -0.16959204 -3.24912593 0.13538025 0 0 Z " fill="#EA1D22" transform="translate(107,157.875)"/>
<path d="M0 0 C2.97 0 5.94 0 9 0 C9.99 2.31 10.98 4.62 12 7 C13.32 4.69 14.64 2.38 16 0 C18.31 0 20.62 0 23 0 C24.06671952 3.20015856 23.94845472 4.88544294 23.5625 8.1875 C23.46066406 9.08855469 23.35882813 9.98960937 23.25390625 10.91796875 C23.17011719 11.60503906 23.08632812 12.29210937 23 13 C22.67 13 22.34 13 22 13 C22 9.04 22 5.08 22 1 C20.35 1 18.7 1 17 1 C16.957279 2.66611905 16.95936168 4.33382885 17 6 C17.33 6.33 17.66 6.66 18 7 C18.07226502 8.85287502 18.0838122 10.70833878 18.0625 12.5625 C18.05347656 13.57441406 18.04445312 14.58632812 18.03515625 15.62890625 C18.02355469 16.41136719 18.01195312 17.19382813 18 18 C17.67 18 17.34 18 17 18 C16.67 15.69 16.34 13.38 16 11 C14.515 13.475 14.515 13.475 13 16 C12.34 15.67 11.68 15.34 11 15 C11.226875 14.443125 11.45375 13.88625 11.6875 13.3125 C12.12910669 10.04461048 10.81048988 8.68220723 9 6 C8.71125 5.2575 8.4225 4.515 8.125 3.75 C7.08734633 1.71251366 7.08734633 1.71251366 4.375 1.25 C3.59125 1.1675 2.8075 1.085 2 1 C2.33 2.98 2.66 4.96 3 7 C2.34 7 1.68 7 1 7 C0.67 4.69 0.34 2.38 0 0 Z " fill="#C04D54" transform="translate(128,161)"/>
<path d="M0 0 C0.66 0.66 1.32 1.32 2 2 C1.79296875 4.06640625 1.79296875 4.06640625 1.1875 6.5625 C-1.03862227 16.59432022 -1.40986005 26.76672215 -2 37 C-1.34 37 -0.68 37 0 37 C-0.33 39.31 -0.66 41.62 -1 44 C-1.66 44 -2.32 44 -3 44 C-4.15927528 40.52217417 -4.11313066 37.81196743 -4.09765625 34.14453125 C-4.0962413 33.48289474 -4.09482635 32.82125824 -4.09336853 32.13957214 C-4.08777996 30.03050172 -4.07522965 27.92153823 -4.0625 25.8125 C-4.05748352 24.38086091 -4.05292087 22.94922015 -4.04882812 21.51757812 C-4.0378143 18.01168412 -4.02055755 14.5058525 -4 11 C-3.34 11 -2.68 11 -2 11 C-2.061875 9.1128125 -2.061875 9.1128125 -2.125 7.1875 C-2.2390374 3.70935927 -2.05925681 3.08888522 0 0 Z " fill="#96BD49" transform="translate(53,124)"/>
<path d="M0 0 C0.66 0 1.32 0 2 0 C1.97905273 0.56807373 1.95810547 1.13614746 1.93652344 1.72143555 C1.6040426 12.13040037 1.32896583 21.54390889 5.02734375 31.40625 C5.97528465 33.93409239 6.54293054 36.34418586 7 39 C5.62437146 37.71034824 4.29233607 36.37310707 3 35 C3 34.34 3 33.68 3 33 C2.34 33 1.68 33 1 33 C0.67 29.7 0.34 26.4 0 23 C-0.66 23 -1.32 23 -2 23 C-2.05447822 20.47886908 -2.09389852 17.9589415 -2.125 15.4375 C-2.14175781 14.73302734 -2.15851563 14.02855469 -2.17578125 13.30273438 C-2.22022044 8.48108178 -1.52768004 4.57702562 0 0 Z " fill="#9BAE65" transform="translate(73,169)"/>
<path d="M0 0 C1.03705044 0.96152295 2.03111567 1.96982372 3 3 C5.10612477 4.80812624 7.22776553 6.59623598 9.35546875 8.37890625 C9.89816406 8.91386719 10.44085938 9.44882813 11 10 C11 10.66 11 11.32 11 12 C11.66 12 12.32 12 13 12 C13 12.66 13 13.32 13 14 C11.68 13.67 10.36 13.34 9 13 C9 12.01 9 11.02 9 10 C7.67741528 9.31225595 6.34013497 8.65288627 5 8 C3.865625 7.443125 2.73125 6.88625 1.5625 6.3125 C-2.22593592 4.91676045 -3.28155084 4.77952742 -7 6 C-9.29765064 7.81654128 -9.29765064 7.81654128 -11.3125 10.0625 C-12.00988281 10.79597656 -12.70726562 11.52945313 -13.42578125 12.28515625 C-14.20501953 13.13400391 -14.20501953 13.13400391 -15 14 C-15.33 13.34 -15.66 12.68 -16 12 C-15.67 11.01 -15.34 10.02 -15 9 C-14.01 9 -13.02 9 -12 9 C-12.0825 8.236875 -12.165 7.47375 -12.25 6.6875 C-12 4 -12 4 -10.1875 2.25 C-6.73542545 0.27738597 -3.93811254 -0.39381125 0 0 Z " fill="#99BA4D" transform="translate(144,82)"/>
<path d="M0 0 C0.66 0 1.32 0 2 0 C3.53213892 5.19780995 3.18430528 10.50147256 3.1875 15.875 C3.19974609 16.95136719 3.21199219 18.02773437 3.22460938 19.13671875 C3.23447749 24.47207934 3.19275727 29.02512778 1 34 C-2.96 34 -6.92 34 -11 34 C-10.01 33.505 -10.01 33.505 -9 33 C-9 32.34 -9 31.68 -9 31 C-6.03 30.67 -3.06 30.34 0 30 C0 20.1 0 10.2 0 0 Z " fill="#C72930" transform="translate(176,156)"/>
<path d="M0 0 C0.33 0 0.66 0 1 0 C1.57284896 4.86921616 -0.10854229 7.17077222 -3 11 C-3.89071888 12.06679121 -4.78651429 13.12936562 -5.6875 14.1875 C-8.14282565 16.8313911 -8.14282565 16.8313911 -9 20 C-9.66 20 -10.32 20 -11 20 C-10.938125 21.3921875 -10.938125 21.3921875 -10.875 22.8125 C-11 26 -11 26 -13 29 C-13.66 29 -14.32 29 -15 29 C-15.33 29.66 -15.66 30.32 -16 31 C-15.67 27.7 -15.34 24.4 -15 21 C-14.34 21 -13.68 21 -13 21 C-12.6596875 20.01 -12.6596875 20.01 -12.3125 19 C-10.6121185 15.11341372 -8.60376916 11.36320183 -6 8 C-5.34 8 -4.68 8 -4 8 C-3.71125 7.236875 -3.4225 6.47375 -3.125 5.6875 C-2 3 -2 3 0 0 Z " fill="#9ABA4C" transform="translate(70,93)"/>
<path d="M0 0 C0.33 0.66 0.66 1.32 1 2 C1.83772949 1.98428955 2.67545898 1.9685791 3.53857422 1.95239258 C6.64336877 1.90129993 9.74794931 1.86366766 12.85302734 1.83520508 C14.85919374 1.81267749 16.86516526 1.7745643 18.87109375 1.73632812 C20.12792969 1.72666016 21.38476562 1.71699219 22.6796875 1.70703125 C23.84226074 1.6913208 25.00483398 1.67561035 26.20263672 1.65942383 C27.1257666 1.77181396 28.04889648 1.8842041 29 2 C31.03120707 5.04681061 31.24659875 5.60118324 31.1953125 9.01171875 C31.18886719 9.76904297 31.18242187 10.52636719 31.17578125 11.30664062 C31.15902344 12.09232422 31.14226562 12.87800781 31.125 13.6875 C31.11597656 14.48478516 31.10695312 15.28207031 31.09765625 16.10351562 C31.07411585 18.069139 31.03824547 20.03460775 31 22 C30.67 22 30.34 22 30 22 C29.505 13.09 29.505 13.09 29 4 C24.94315111 3.97700778 20.8864689 3.95710515 16.82958984 3.94506836 C15.45035027 3.94004882 14.07111598 3.93323181 12.69189453 3.92456055 C10.70607817 3.9123908 8.72022251 3.90728367 6.734375 3.90234375 C5.54038086 3.89710693 4.34638672 3.89187012 3.11621094 3.88647461 C-0.18253302 3.89896901 -0.18253302 3.89896901 -4 5 C-4 10.61 -4 16.22 -4 22 C-4.33 22 -4.66 22 -5 22 C-5.05390357 19.06225537 -5.0936255 16.12549768 -5.125 13.1875 C-5.14175781 12.35412109 -5.15851563 11.52074219 -5.17578125 10.66210938 C-5.18222656 9.85966797 -5.18867187 9.05722656 -5.1953125 8.23046875 C-5.20578613 7.49207764 -5.21625977 6.75368652 -5.22705078 5.99291992 C-5 4 -5 4 -3 1 C-2.01 0.67 -1.02 0.34 0 0 Z " fill="#C32B33" transform="translate(126,131)"/>
<path d="M0 0 C3.465 1.98 3.465 1.98 7 4 C7 4.66 7 5.32 7 6 C7.53625 6.226875 8.0725 6.45375 8.625 6.6875 C14.62233558 10.00181703 21.37933639 15.56746204 24 22 C17.25 21.125 17.25 21.125 15 20 C14.5978125 18.63875 14.5978125 18.63875 14.1875 17.25 C12.80807821 13.47474037 10.88323736 11.73148803 8 9 C8 8.34 8 7.68 8 7 C7.2575 6.71125 6.515 6.4225 5.75 6.125 C3.43260203 5.17697356 1.22082885 4.15154089 -1 3 C-0.67 2.01 -0.34 1.02 0 0 Z " fill="#98BC49" transform="translate(186,74)"/>
<path d="M0 0 C0.99773437 0.00193359 1.99546875 0.00386719 3.0234375 0.00585938 C4.05984375 0.01810547 5.09625 0.03035156 6.1640625 0.04296875 C7.19273437 0.04361328 8.22140625 0.04425781 9.28125 0.04492188 C14.21922607 0.07355705 18.93854677 0.18869132 23.7890625 1.23046875 C23.1290625 1.89046875 22.4690625 2.55046875 21.7890625 3.23046875 C20.17664344 3.02704271 18.56494325 2.8096052 16.96435547 2.52783203 C12.6215295 1.93416626 8.22636536 2.1290949 3.8515625 2.16796875 C2.3965332 2.17473633 2.3965332 2.17473633 0.91210938 2.18164062 C-1.4623051 2.19333725 -3.83658771 2.20972789 -6.2109375 2.23046875 C-6.19933594 2.89868652 -6.18773438 3.5669043 -6.17578125 4.25537109 C-6.16224609 5.5849585 -6.16224609 5.5849585 -6.1484375 6.94140625 C-6.13683594 7.81587402 -6.12523438 8.6903418 -6.11328125 9.59130859 C-6.25277633 13.36116304 -7.14158107 16.62139081 -8.2109375 20.23046875 C-8.8709375 19.90046875 -9.5309375 19.57046875 -10.2109375 19.23046875 C-9.8809375 13.62046875 -9.5509375 8.01046875 -9.2109375 2.23046875 C-5.3660843 0.30804215 -4.07770796 -0.01852513 0 0 Z " fill="#CC252E" transform="translate(131.2109375,133.76953125)"/>
<path d="M0 0 C1.50433594 0.01353516 1.50433594 0.01353516 3.0390625 0.02734375 C3.80992187 0.03894531 4.58078125 0.05054688 5.375 0.0625 C6.035 2.0425 6.695 4.0225 7.375 6.0625 C6.715 6.0625 6.055 6.0625 5.375 6.0625 C4.92125 5.5675 4.4675 5.0725 4 4.5625 C2.25371033 2.61031326 2.25371033 2.61031326 -1.625 3.0625 C-2.615 4.5475 -2.615 4.5475 -3.625 6.0625 C-3.955 5.0725 -4.285 4.0825 -4.625 3.0625 C-5.98118499 4.18784105 -5.98118499 4.18784105 -5.6875 7.125 C-5.666875 8.094375 -5.64625 9.06375 -5.625 10.0625 C-0.675 12.0425 -0.675 12.0425 4.375 14.0625 C1.18729009 15.65635496 -1.21527042 14.81379635 -4.625 14.0625 C-7.5625 12 -7.5625 12 -9.625 10.0625 C-9.34372579 8.58132199 -9.04966268 7.10256751 -8.75 5.625 C-8.58757812 4.80128906 -8.42515625 3.97757813 -8.2578125 3.12890625 C-8.04898438 2.44699219 -7.84015625 1.76507813 -7.625 1.0625 C-4.98041621 -0.25979189 -2.94738699 -0.03427194 0 0 Z " fill="#C54B53" transform="translate(162.625,160.9375)"/>
<path d="M0 0 C1.32 0 2.64 0 4 0 C5.03789581 1.64333504 6.03567924 3.31243867 7 5 C9.06700655 6.32793606 9.06700655 6.32793606 11 7 C7.14763991 9.56824006 4.63558834 8.82735049 0.3125 8.125 C-0.7403418 7.96837891 -0.7403418 7.96837891 -1.81445312 7.80859375 C-3.54458829 7.54966196 -5.27254118 7.27622343 -7 7 C-7 6.34 -7 5.68 -7 5 C-6.01 5 -5.02 5 -4 5 C-4.33 3.68 -4.66 2.36 -5 1 C-4.34 1 -3.68 1 -3 1 C-2.67 1.99 -2.34 2.98 -2 4 C-1.34 2.68 -0.68 1.36 0 0 Z " fill="#CF444A" transform="translate(154,175)"/>
<path d="M0 0 C3.56980735 3.41114925 3.56980735 3.41114925 3.8125 6.6875 C-0.98426262 6.17508619 -4.05210477 4.83936026 -8.0625 2.1875 C-9.02929688 1.5584375 -9.99609375 0.929375 -10.9921875 0.28125 C-11.71664062 -0.2446875 -12.44109375 -0.770625 -13.1875 -1.3125 C-13.1875 -1.6425 -13.1875 -1.9725 -13.1875 -2.3125 C-7.25405368 -3.52615947 -4.93937051 -3.58346488 0 0 Z " fill="#A2A27F" transform="translate(99.1875,228.3125)"/>
<path d="M0 0 C1.65 0 3.3 0 5 0 C5.33 1.65 5.66 3.3 6 5 C4.35 3.68 2.7 2.36 1 1 C1 3.31 1 5.62 1 8 C-0.953125 7.93489583 -2.90625 7.86979167 -4.859375 7.8046875 C-7.42184168 7.90751009 -7.42184168 7.90751009 -11 10 C-11 7.03 -11 4.06 -11 1 C-10.34 1 -9.68 1 -9 1 C-9 1.66 -9 2.32 -9 3 C-8.34 3 -7.68 3 -7 3 C-7 3.66 -7 4.32 -7 5 C-4.55519921 4.81171228 -4.55519921 4.81171228 -2 4 C-0.63979849 2.03241727 -0.63979849 2.03241727 0 0 Z " fill="#DE2428" transform="translate(113,177)"/>
<path d="M0 0 C3 2 3 2 3.6875 4.625 C3.790625 5.40875 3.89375 6.1925 4 7 C4.99 7.33 5.98 7.66 7 8 C7.9140625 10.14453125 7.9140625 10.14453125 8.625 12.8125 C8.86476562 13.68519531 9.10453125 14.55789062 9.3515625 15.45703125 C9.56554687 16.29621094 9.77953125 17.13539063 10 18 C10.23460937 18.72574219 10.46921875 19.45148438 10.7109375 20.19921875 C10.80632812 20.79347656 10.90171875 21.38773438 11 22 C10.34 22.66 9.68 23.32 9 24 C8.52949219 22.97519531 8.05898437 21.95039063 7.57421875 20.89453125 C6.9454605 19.53378577 6.31654596 18.1731125 5.6875 16.8125 C5.2244043 15.80219727 5.2244043 15.80219727 4.75195312 14.77148438 C3.36844078 11.78601036 1.9778382 8.96398708 0.25 6.15625 C-1 4 -1 4 -0.6875 1.6875 C-0.460625 1.130625 -0.23375 0.57375 0 0 Z " fill="#A2B76A" transform="translate(193,136)"/>
<path d="M0 0 C-0.33 0.99 -0.66 1.98 -1 3 C-1.66 3 -2.32 3 -3 3 C-3.40605469 3.85078125 -3.40605469 3.85078125 -3.8203125 4.71875 C-6.28275154 9.48055264 -9.20511572 14.25950615 -13.0625 18 C-16.14148774 21.17830992 -17.96539133 25.09755386 -20 29 C-20.66 29 -21.32 29 -22 29 C-20.63524255 24.05837824 -18.38578861 20.27243838 -15.375 16.1875 C-14.71274414 15.27653564 -14.71274414 15.27653564 -14.03710938 14.34716797 C-3.47151283 0 -3.47151283 0 0 0 Z " fill="#B0BF7A" transform="translate(77,85)"/>
<path d="M0 0 C0.33 0.66 0.66 1.32 1 2 C1.66 2.33 2.32 2.66 3 3 C1.9275 3.556875 0.855 4.11375 -0.25 4.6875 C-3.68593218 6.63314835 -5.58708452 8.86320987 -8 12 C-9.64821244 13.03013277 -11.31503702 14.03114628 -13 15 C-13.680625 15.7425 -14.36125 16.485 -15.0625 17.25 C-15.701875 17.8275 -16.34125 18.405 -17 19 C-19.25 18.75 -19.25 18.75 -21 18 C-17.93829002 14.63211902 -14.76610537 12.06882112 -11 9.5 C-7.22964457 6.92649361 -4.06996254 4.36705569 -1 1 C-0.67 0.67 -0.34 0.34 0 0 Z " fill="#99BB4A" transform="translate(92,74)"/>
<path d="M0 0 C0.66 0.33 1.32 0.66 2 1 C1.60006408 4.35946171 1.07473349 6.8567608 -0.5 9.875 C-2.34264507 13.71384389 -2.63582787 16.77560326 -3 21 C-3.66 21 -4.32 21 -5 21 C-5.33 25.95 -5.66 30.9 -6 36 C-6.33 36 -6.66 36 -7 36 C-8.09511429 23.80772758 -4.83549458 11.18490569 0 0 Z " fill="#A9BA74" transform="translate(54,114)"/>
<path d="M0 0 C2.46800047 1.15173355 4.04783565 2.04783565 6 4 C6.125 7.625 6.125 7.625 6 11 C6.99 11.33 7.98 11.66 9 12 C9.33 13.98 9.66 15.96 10 18 C10.66 18 11.32 18 12 18 C12 19.98 12 21.96 12 24 C8.42201451 20.89907924 7.40476161 18.46218392 6 14 C4.75501443 11.42865726 3.4488736 8.89666721 2.12109375 6.3671875 C1.10820648 4.22847779 0.47357914 2.30936345 0 0 Z " fill="#9BB656" transform="translate(52,180)"/>
<path d="M0 0 C0.66 0 1.32 0 2 0 C2.33 2.64 2.66 5.28 3 8 C3.99 8.33 4.98 8.66 6 9 C5.34 9 4.68 9 4 9 C3.67 11.31 3.34 13.62 3 16 C2.01 16.33 1.02 16.66 0 17 C-1 16 -1 16 -1.09765625 14.15234375 C-1.06510417 12.1015625 -1.03255208 10.05078125 -1 8 C-1.66 7.67 -2.32 7.34 -3 7 C-2.01 6.67 -1.02 6.34 0 6 C0 4.02 0 2.04 0 0 Z " fill="#D5262C" transform="translate(126,160)"/>
<path d="M0 0 C0.33 0.66 0.66 1.32 1 2 C2.98 1.67 4.96 1.34 7 1 C7 1.66 7 2.32 7 3 C9.64 3.66 12.28 4.32 15 5 C15 5.33 15 5.66 15 6 C11.6477382 6.06573062 8.54304868 6.11107814 5.25 5.4375 C2.84506244 4.77859647 2.84506244 4.77859647 0 6 C-1.9533956 6.25043533 -3.91307519 6.45375968 -5.875 6.625 C-7.41800781 6.76808594 -7.41800781 6.76808594 -8.9921875 6.9140625 C-11.8608817 6.99602519 -14.22478189 6.68612403 -17 6 C-17 5.01 -17 4.02 -17 3 C-16.34 3 -15.68 3 -15 3 C-15 3.66 -15 4.32 -15 5 C-14.0409375 4.7215625 -14.0409375 4.7215625 -13.0625 4.4375 C-8.92665389 3.84666484 -5.1148827 4.41728241 -1 5 C-0.67 3.35 -0.34 1.7 0 0 Z " fill="#DC232C" transform="translate(136,179)"/>
<path d="M0 0 C5.8811404 5.8811404 8.83165362 18.28630148 9.125 26.5 C9.08375 27.325 9.0425 28.15 9 29 C8.67 29 8.34 29 8 29 C8 27.35 8 25.7 8 24 C7.01 24 6.02 24 5 24 C3.88870931 20.66612793 3.65184903 17.64062592 3.37890625 14.15625 C3.09839599 11.71174301 3.09839599 11.71174301 1 9 C0.5859375 6.73828125 0.5859375 6.73828125 0.375 4.3125 C0.30023438 3.50425781 0.22546875 2.69601563 0.1484375 1.86328125 C0.09945312 1.24839844 0.05046875 0.63351563 0 0 Z " fill="#9BAF64" transform="translate(223,112)"/>
<path d="M0 0 C1.32 0.33 2.64 0.66 4 1 C4 1.99 4 2.98 4 4 C4.99 4 5.98 4 7 4 C7.33 4.66 7.66 5.32 8 6 C8.825 6.433125 9.65 6.86625 10.5 7.3125 C13 9 13 9 13.75 11.5625 C13.87375 12.7690625 13.87375 12.7690625 14 14 C14.33 14.66 14.66 15.32 15 16 C10.97752394 14.41538822 8.66983444 11.74059872 5.8125 8.5625 C4.93207031 7.59441406 4.05164063 6.62632812 3.14453125 5.62890625 C1 3 1 3 0 0 Z " fill="#98B253" transform="translate(64,204)"/>
<path d="M0 0 C0.66 0.66 1.32 1.32 2 2 C-1.66866356 6.5142775 -5.33534808 10.50151106 -10 14 C-10.66 14 -11.32 14 -12 14 C-10.33333333 10.66666667 -8.66666667 7.33333333 -7 4 C-6.01 4 -5.02 4 -4 4 C-4 3.34 -4 2.68 -4 2 C-2.68 2 -1.36 2 0 2 C0 1.34 0 0.68 0 0 Z " fill="#97B354" transform="translate(212,206)"/>
<path d="M0 0 C0 1.65 0 3.3 0 5 C1.32 4.67 2.64 4.34 4 4 C4 4.66 4 5.32 4 6 C7.3 6 10.6 6 14 6 C14 6.66 14 7.32 14 8 C9.38 8 4.76 8 0 8 C0 7.34 0 6.68 0 6 C-0.66 6 -1.32 6 -2 6 C-2.33 4.68 -2.66 3.36 -3 2 C-4.98 2 -6.96 2 -9 2 C-9 1.34 -9 0.68 -9 0 C-2.25 -1.125 -2.25 -1.125 0 0 Z " fill="#BC2F34" transform="translate(121,176)"/>
<path d="M0 0 C1.875 0.25 1.875 0.25 4 1 C5.25 3.0625 5.25 3.0625 6 5 C6.99 5 7.98 5 9 5 C9.433125 6.175625 9.433125 6.175625 9.875 7.375 C10.84912254 10.09671632 10.84912254 10.09671632 13 12 C13.33 12.99 13.66 13.98 14 15 C14.66 15.33 15.32 15.66 16 16 C15.67 17.32 15.34 18.64 15 20 C14.41992188 19.21496094 13.83984375 18.42992187 13.2421875 17.62109375 C8.01901061 10.57526285 8.01901061 10.57526285 2.4375 3.8125 C0 1 0 1 0 0 Z " fill="#A3BC72" transform="translate(176,118)"/>
<path d="M0 0 C0.33 0 0.66 0 1 0 C1.738041 16.8929385 1.738041 16.8929385 -3 24 C-3.33 24 -3.66 24 -4 24 C-4 22.35 -4 20.7 -4 19 C-3.67 19 -3.34 19 -3 19 C-2.06619039 14.46859347 -2.06619039 14.46859347 -3 10 C-2.39816251 7.97954558 -1.72693904 5.97888961 -1 4 C-0.65023242 2.67088318 -0.30903983 1.33917261 0 0 Z " fill="#9ABD4F" transform="translate(228,160)"/>
<path d="M0 0 C2.8125 0.125 2.8125 0.125 6 1 C7.875 4.0625 7.875 4.0625 9 7 C4.82412255 8.39195915 2.86525224 6.82323219 -1 5 C-0.67 3.35 -0.34 1.7 0 0 Z " fill="#C63745" transform="translate(161,163)"/>
<path d="M0 0 C1.32 0.33 2.64 0.66 4 1 C-0.95 5.95 -5.9 10.9 -11 16 C-11.33 15.01 -11.66 14.02 -12 13 C-9.35377267 10.27594245 -6.72406659 7.73844905 -3.75 5.375 C-0.79262734 3.23003634 -0.79262734 3.23003634 0 0 Z " fill="#9CB163" transform="translate(124,96)"/>
<path d="M0 0 C0.33 0.66 0.66 1.32 1 2 C0.67 2.66 0.34 3.32 0 4 C0.66 4.33 1.32 4.66 2 5 C0.38405168 7.04119788 -1.2856382 9.04072937 -3 11 C-3.66 11 -4.32 11 -5 11 C-5 11.66 -5 12.32 -5 13 C-5.99 13 -6.98 13 -8 13 C-8 12.01 -8 11.02 -8 10 C-7.34 9.67 -6.68 9.34 -6 9 C-5.71125 8.4225 -5.4225 7.845 -5.125 7.25 C-3.75594553 4.51189105 -1.95444103 2.34532924 0 0 Z " fill="#9CB953" transform="translate(197,213)"/>
<path d="M0 0 C2.14651068 1.73901801 2.93217485 2.65698264 3.4765625 5.41015625 C3.55003906 6.72306641 3.55003906 6.72306641 3.625 8.0625 C3.7917857 11.66869449 3.7917857 11.66869449 5 15 C5.13415472 17.6723621 5.04318541 20.32250488 5 23 C4.67 23 4.34 23 4 23 C3.87882813 22.41992188 3.75765625 21.83984375 3.6328125 21.2421875 C2.87486458 17.70898412 2.12327611 14.33558496 0.875 10.9375 C-0.25647318 7.13898291 -0.13634876 3.95411415 0 0 Z " fill="#99BD4A" transform="translate(224,121)"/>
<path d="M0 0 C0.66 0.33 1.32 0.66 2 1 C2 1.66 2 2.32 2 3 C2.66 3.33 3.32 3.66 4 4 C-6.02355489 4.20272358 -15.99847189 3.58039956 -26 3 C-26 2.67 -26 2.34 -26 2 C-22.22958744 1.80329446 -18.45866237 1.61921574 -14.6875 1.4375 C-13.61564453 1.38142578 -12.54378906 1.32535156 -11.43945312 1.26757812 C-9.89741211 1.19506836 -9.89741211 1.19506836 -8.32421875 1.12109375 C-7.37635498 1.0739624 -6.42849121 1.02683105 -5.4519043 0.97827148 C-3 1 -3 1 0 2 C0 1.34 0 0.68 0 0 Z " fill="#9DBD49" transform="translate(158,60)"/>
<path d="M0 0 C0.33 0 0.66 0 1 0 C1.06058594 0.61488281 1.12117187 1.22976562 1.18359375 1.86328125 C1.26738281 2.67152344 1.35117188 3.47976562 1.4375 4.3125 C1.51871094 5.11300781 1.59992188 5.91351563 1.68359375 6.73828125 C1.95265693 9.16087179 1.95265693 9.16087179 3 12 C1.68 12 0.36 12 -1 12 C-1 11.34 -1 10.68 -1 10 C-2.98 10.33 -4.96 10.66 -7 11 C-7 10.34 -7 9.68 -7 9 C-6.37609375 8.91878906 -5.7521875 8.83757812 -5.109375 8.75390625 C-2.8507553 8.20570556 -2.8507553 8.20570556 -1.953125 6.15234375 C-1.60507813 5.05599609 -1.60507813 5.05599609 -1.25 3.9375 C-1.00765625 3.20402344 -0.7653125 2.47054687 -0.515625 1.71484375 C-0.34546875 1.14894531 -0.1753125 0.58304688 0 0 Z " fill="#D03640" transform="translate(144,170)"/>
<path d="M0 0 C0.33 0 0.66 0 1 0 C1.3125 2.8125 1.3125 2.8125 1 6 C-2.74472907 8.97427217 -5.48260142 9.32852899 -10.17578125 9.07421875 C-11.33271484 9.01943359 -12.48964844 8.96464844 -13.68164062 8.90820312 C-14.87982422 8.83537109 -16.07800781 8.76253906 -17.3125 8.6875 C-18.53001953 8.62626953 -19.74753906 8.56503906 -21.00195312 8.50195312 C-24.00236363 8.34899102 -27.00118289 8.18117919 -30 8 C-30 7.67 -30 7.34 -30 7 C-20.76 7 -11.52 7 -2 7 C-1.34 4.69 -0.68 2.38 0 0 Z " fill="#BC474B" transform="translate(157,204)"/>
<path d="M0 0 C-0.99 0.33 -1.98 0.66 -3 1 C-3.33 1.99 -3.66 2.98 -4 4 C-6.06640625 5.60546875 -6.06640625 5.60546875 -8.5625 7.1875 C-9.38878906 7.71730469 -10.21507813 8.24710938 -11.06640625 8.79296875 C-11.70449219 9.19128906 -12.34257813 9.58960937 -13 10 C-12.4204182 6.78087698 -11.51238945 5.10207467 -9.1875 2.8125 C-8.68605469 2.30332031 -8.18460937 1.79414062 -7.66796875 1.26953125 C-5.02899367 -0.73905634 -3.02844202 -1.51422101 0 0 Z " fill="#A1B464" transform="translate(90,77)"/>
<path d="M0 0 C1.3921875 0.3403125 1.3921875 0.3403125 2.8125 0.6875 C2.8125 1.0175 2.8125 1.3475 2.8125 1.6875 C0.5025 1.6875 -1.8075 1.6875 -4.1875 1.6875 C-4.166875 2.491875 -4.14625 3.29625 -4.125 4.125 C-4.1875 6.6875 -4.1875 6.6875 -5.1875 7.6875 C-6.85367115 7.72813832 -8.52138095 7.730221 -10.1875 7.6875 C-9.8575 5.7075 -9.5275 3.7275 -9.1875 1.6875 C-8.1975 2.0175 -7.2075 2.3475 -6.1875 2.6875 C-5.81625 2.171875 -5.445 1.65625 -5.0625 1.125 C-3.1875 -0.3125 -3.1875 -0.3125 0 0 Z M-7.1875 3.6875 C-6.1875 5.6875 -6.1875 5.6875 -6.1875 5.6875 Z " fill="#C04549" transform="translate(116.1875,174.3125)"/>
<path d="M0 0 C0.66 0 1.32 0 2 0 C5.93780715 4.83725057 8.77931477 10.20154411 11 16 C10.01 15.67 9.02 15.34 8 15 C6.96514123 12.68191636 5.9644586 10.34824702 5 8 C4.34 7.67 3.68 7.34 3 7 C3 6.34 3 5.68 3 5 C1.35 4.67 -0.3 4.34 -2 4 C-1.34 2.68 -0.68 1.36 0 0 Z " fill="#98BA4B" transform="translate(210,96)"/>
<path d="M0 0 C4.17383395 3.92831431 7.89394426 8.16479983 11 13 C11 13.66 11 14.32 11 15 C11.99 15.33 12.98 15.66 14 16 C13.34 16.33 12.68 16.66 12 17 C10.2925002 15.71937515 8.62626404 14.38232443 7 13 C7 12.34 7 11.68 7 11 C6.01 10.67 5.02 10.34 4 10 C3.65657551 8.66923011 3.32380126 7.33568021 3 6 C2.01 5.34 1.02 4.68 0 4 C0 2.68 0 1.36 0 0 Z " fill="#98AB5F" transform="translate(80,208)"/>
<path d="M0 0 C1.32 0.33 2.64 0.66 4 1 C2.89718873 2.27200971 1.79269231 3.54255853 0.6875 4.8125 C0.07261719 5.52019531 -0.54226562 6.22789063 -1.17578125 6.95703125 C-4.44911047 10.6228796 -4.44911047 10.6228796 -6 12 C-6.66 12 -7.32 12 -8 12 C-7.34 10.68 -6.68 9.36 -6 8 C-5.34 8 -4.68 8 -4 8 C-3.566875 6.8553125 -3.566875 6.8553125 -3.125 5.6875 C-2 3 -2 3 0 0 Z " fill="#A2B26C" transform="translate(108,112)"/>
<path d="M0 0 C1.31223496 3.93670488 0.24296256 6.12488144 -1 10 C-0.34 10.33 0.32 10.66 1 11 C0.01 11.495 0.01 11.495 -1 12 C-1.66 11.67 -2.32 11.34 -3 11 C-3.33 11.99 -3.66 12.98 -4 14 C-4.33 12.68 -4.66 11.36 -5 10 C-4.34 9.67 -3.68 9.34 -3 9 C-3.33 8.01 -3.66 7.02 -4 6 C-3.67 5.01 -3.34 4.02 -3 3 C-2.34 3 -1.68 3 -1 3 C-0.67 2.01 -0.34 1.02 0 0 Z " fill="#D72A31" transform="translate(110,165)"/>
<path d="M0 0 C-0.33 0.99 -0.66 1.98 -1 3 C-1.72574219 2.74347656 -2.45148438 2.48695312 -3.19921875 2.22265625 C-6.14056407 1.67550656 -6.14056407 1.67550656 -8.45703125 3.87109375 C-9.62298828 5.14146484 -9.62298828 5.14146484 -10.8125 6.4375 C-11.60269531 7.28183594 -12.39289063 8.12617187 -13.20703125 8.99609375 C-14.09455078 9.98802734 -14.09455078 9.98802734 -15 11 C-15.33 10.34 -15.66 9.68 -16 9 C-15.67 8.01 -15.34 7.02 -15 6 C-14.01 6 -13.02 6 -12 6 C-11.731875 5.38125 -11.46375 4.7625 -11.1875 4.125 C-8.49454698 -0.69396856 -4.97879637 -0.18787911 0 0 Z " fill="#9CB165" transform="translate(144,85)"/>
<path d="M0 0 C0.33 1.32 0.66 2.64 1 4 C0.01 4.33 -0.98 4.66 -2 5 C-2 5.99 -2 6.98 -2 8 C-3.63631892 9.04892238 -5.30485863 10.04906703 -7 11 C-7.33 11.66 -7.66 12.32 -8 13 C-8.99 12.67 -9.98 12.34 -11 12 C-8.22095576 8.39753524 -5.25893558 5.17317412 -2 2 C-1.34 1.34 -0.68 0.68 0 0 Z " fill="#A1B26F" transform="translate(191,218)"/>
<path d="M0 0 C0.33 0 0.66 0 1 0 C1.42765417 6.41481258 -0.14256832 11.88595404 -2 18 C-2.66 17.67 -3.32 17.34 -4 17 C-3.7168444 14.91549283 -3.42314331 12.83241633 -3.125 10.75 C-2.96257812 9.58984375 -2.80015625 8.4296875 -2.6328125 7.234375 C-2.08179569 4.41806687 -1.44203518 2.44782443 0 0 Z " fill="#9BAC65" transform="translate(231,164)"/>
<path d="M0 0 C0.99 0.33 1.98 0.66 3 1 C-0.96 6.94 -0.96 6.94 -5 13 C-5.66 12.67 -6.32 12.34 -7 12 C-7 10.68 -7 9.36 -7 8 C-3.78571429 5 -3.78571429 5 -1 5 C-0.67 3.35 -0.34 1.7 0 0 Z " fill="#99AF5F" transform="translate(221,192)"/>
<path d="M0 0 C0.99 0 1.98 0 3 0 C3 2.64 3 5.28 3 8 C1.68 8.33 0.36 8.66 -1 9 C-2.0326802 6.21176345 -2.04509293 5.1322726 -1.0625 2.25 C-0.711875 1.5075 -0.36125 0.765 0 0 Z " fill="#ED1A28" transform="translate(173,162)"/>
<path d="M0 0 C0.33 0.66 0.66 1.32 1 2 C0.01 2 -0.98 2 -2 2 C-2 2.99 -2 3.98 -2 5 C-5.37503669 3.8141763 -7.64722731 2.72426311 -10 0 C-3.34250344 -1.36176066 -3.34250344 -1.36176066 0 0 Z " fill="#A2AF72" transform="translate(96,226)"/>
<path d="M0 0 C0.66 0.33 1.32 0.66 2 1 C2 4.63 2 8.26 2 12 C1.67 12 1.34 12 1 12 C0.67 9.69 0.34 7.38 0 5 C-1.485 7.475 -1.485 7.475 -3 10 C-3.66 9.67 -4.32 9.34 -5 9 C-4.835 8.38125 -4.67 7.7625 -4.5 7.125 C-3.92365356 5.03936614 -3.92365356 5.03936614 -4 3 C-2.68 2.67 -1.36 2.34 0 2 C0 1.34 0 0.68 0 0 Z " fill="#A6565C" transform="translate(144,167)"/>
<path d="M0 0 C-0.639375 0.12375 -1.27875 0.2475 -1.9375 0.375 C-2.618125 0.58125 -3.29875 0.7875 -4 1 C-4.33 1.66 -4.66 2.32 -5 3 C-5.33 2.67 -5.66 2.34 -6 2 C-6.33 7.28 -6.66 12.56 -7 18 C-9.22461506 13.55076989 -9.13272065 11.67204515 -8.75 6.8125 C-8.66234375 5.56082031 -8.5746875 4.30914062 -8.484375 3.01953125 C-8.24460938 1.52486328 -8.24460938 1.52486328 -8 0 C-5.13822943 -1.43088528 -3.06624227 -0.59991697 0 0 Z " fill="#DC383F" transform="translate(163,190)"/>
<path d="M0 0 C3 0 3 0 4.6875 1.375 C6 3 6 3 6 5 C2.37 5 -1.26 5 -5 5 C-4.67 3.68 -4.34 2.36 -4 1 C-2.68 1.66 -1.36 2.32 0 3 C0 2.01 0 1.02 0 0 Z " fill="#C84F52" transform="translate(130,177)"/>
<path d="M0 0 C0.66 0 1.32 0 2 0 C2.66 2.31 3.32 4.62 4 7 C4.99 7 5.98 7 7 7 C7 5.35 7 3.7 7 2 C7.33 2 7.66 2 8 2 C8 4.97 8 7.94 8 11 C4 10 4 10 2.3125 7.75 C1.05418002 5.11352004 0.411338 2.87936603 0 0 Z " fill="#B93B45" transform="translate(122,169)"/>
<path d="M0 0 C0.66 0.66 1.32 1.32 2 2 C1.01 4.97 0.02 7.94 -1 11 C-1.33 11 -1.66 11 -2 11 C-2.25 3.375 -2.25 3.375 0 0 Z M-4 11 C-3.34 11 -2.68 11 -2 11 C-2.33 13.97 -2.66 16.94 -3 20 C-3.33 20 -3.66 20 -4 20 C-4 17.03 -4 14.06 -4 11 Z " fill="#9CB953" transform="translate(53,124)"/>
<path d="M0 0 C0.99 0.33 1.98 0.66 3 1 C2.67 1.66 2.34 2.32 2 3 C1.34 3 0.68 3 0 3 C-0.4021875 4.1446875 -0.4021875 4.1446875 -0.8125 5.3125 C-1.94424112 7.87380884 -2.91223401 9.19692938 -5 11 C-5 6.86356447 -4.84767359 6.30197567 -2.5 3.25 C-2.0359375 2.63640625 -1.571875 2.0228125 -1.09375 1.390625 C-0.55234375 0.70226562 -0.55234375 0.70226562 0 0 Z " fill="#A6B96D" transform="translate(198,208)"/>
<path d="M0 0 C2.31 0 4.62 0 7 0 C7 1.66666667 7 3.33333333 7 5 C5.35 5 3.7 5 2 5 C1.34 3.35 0.68 1.7 0 0 Z " fill="#BD2A34" transform="translate(158,175)"/>
<path d="M0 0 C0.639375 0.28875 1.27875 0.5775 1.9375 0.875 C5.29891424 2.10980523 8.59552065 2.78592436 12.109375 3.4375 C12.73328125 3.623125 13.3571875 3.80875 14 4 C14.33 4.66 14.66 5.32 15 6 C13.06166004 5.91284983 11.1242571 5.80467036 9.1875 5.6875 C8.10855469 5.62949219 7.02960938 5.57148437 5.91796875 5.51171875 C2.82089837 4.96859128 1.78667929 4.5389653 0 2 C0 1.34 0 0.68 0 0 Z " fill="#98BC49" transform="translate(166,65)"/>
<path d="M0 0 C0.66 0 1.32 0 2 0 C2 1.65 2 3.3 2 5 C1.34 5 0.68 5 0 5 C-0.33 9.95 -0.66 14.9 -1 20 C-1.33 20 -1.66 20 -2 20 C-2.21133202 12.95559921 -2.07965362 6.75887425 0 0 Z " fill="#A3B36C" transform="translate(49,130)"/>
<path d="M0 0 C1.65 0 3.3 0 5 0 C5.33 1.65 5.66 3.3 6 5 C5.54625 4.505 5.0925 4.01 4.625 3.5 C3.12364481 1.77390663 3.12364481 1.77390663 1 2 C0.34 3.65 -0.32 5.3 -1 7 C-2.32 7 -3.64 7 -5 7 C-5 6.34 -5 5.68 -5 5 C-4.01 4.67 -3.02 4.34 -2 4 C-0.79117904 1.99983534 -0.79117904 1.99983534 0 0 Z " fill="#D0292B" transform="translate(113,177)"/>
<path d="M0 0 C0.99 0.33 1.98 0.66 3 1 C2.01 2.485 2.01 2.485 1 4 C0.34 4 -0.32 4 -1 4 C-1 9.61 -1 15.22 -1 21 C-1.33 21 -1.66 21 -2 21 C-2.05390357 18.06225537 -2.0936255 15.12549768 -2.125 12.1875 C-2.14175781 11.35412109 -2.15851563 10.52074219 -2.17578125 9.66210938 C-2.18222656 8.85966797 -2.18867187 8.05722656 -2.1953125 7.23046875 C-2.20578613 6.49207764 -2.21625977 5.75368652 -2.22705078 4.99291992 C-2 3 -2 3 0 0 Z " fill="#B65C62" transform="translate(123,132)"/>
<path d="M0 0 C0.33 0.66 0.66 1.32 1 2 C1.66 2 2.32 2 3 2 C2.01 5.3 1.02 8.6 0 12 C-0.66 12 -1.32 12 -2 12 C-2.26252625 7.66831683 -1.29243536 4.1196377 0 0 Z " fill="#9AAE5C" transform="translate(75,157)"/>
<path d="M0 0 C0 0.99 0 1.98 0 3 C-5.14285714 7 -5.14285714 7 -9 7 C-8.67 5.68 -8.34 4.36 -8 3 C-6.865625 2.690625 -5.73125 2.38125 -4.5625 2.0625 C-1.21224901 1.37075469 -1.21224901 1.37075469 0 0 Z " fill="#909474" transform="translate(187,228)"/>
<path d="M0 0 C1.13643966 3.40931897 0.86747764 4.00335456 -0.4375 7.1875 C-0.72496094 7.90292969 -1.01242188 8.61835938 -1.30859375 9.35546875 C-1.53675781 9.89816406 -1.76492187 10.44085938 -2 11 C-3.32 11 -4.64 11 -6 11 C-4.54955729 6.89041233 -2.48889248 3.56741255 0 0 Z " fill="#9FBA50" transform="translate(206,197)"/>
<path d="M0 0 C1.32 0 2.64 0 4 0 C5.32 2.64 6.64 5.28 8 8 C7.01 8 6.02 8 5 8 C5 7.01 5 6.02 5 5 C3.68 4.67 2.36 4.34 1 4 C0.67 2.68 0.34 1.36 0 0 Z " fill="#95B94A" transform="translate(63,200)"/>
<path d="M0 0 C-0.33 0.99 -0.66 1.98 -1 3 C1.31 3.33 3.62 3.66 6 4 C6 4.33 6 4.66 6 5 C1.71 5 -2.58 5 -7 5 C-6 2 -6 2 -4.0625 0.8125 C-2 0 -2 0 0 0 Z " fill="#DD2222" transform="translate(170,182)"/>
<path d="M0 0 C3.71134205 3.1994328 5.42930118 6.3705719 7 11 C6.6875 13.4375 6.6875 13.4375 6 15 C2.87616707 10.00186731 1.2143834 5.76832116 0 0 Z " fill="#9ABE4A" transform="translate(200,146)"/>
<path d="M0 0 C0.66 0 1.32 0 2 0 C1.67 0.99 1.34 1.98 1 3 C0.34 3 -0.32 3 -1 3 C-1.226875 3.556875 -1.45375 4.11375 -1.6875 4.6875 C-3.35896766 7.63246684 -5.55276352 9.68156544 -8 12 C-8.66 11.67 -9.32 11.34 -10 11 C-9.52949219 10.54109375 -9.05898437 10.0821875 -8.57421875 9.609375 C-4.66905586 5.77414308 -4.66905586 5.77414308 -1.1875 1.5625 C-0.795625 1.046875 -0.40375 0.53125 0 0 Z " fill="#B3C089" transform="translate(75,85)"/>
<path d="M0 0 C1.423125 0.2784375 1.423125 0.2784375 2.875 0.5625 C5.89868793 1.28686632 5.89868793 1.28686632 8 0 C8.144375 0.94875 8.28875 1.8975 8.4375 2.875 C8.82935399 5.8934494 8.82935399 5.8934494 10 8 C6.41726669 6.34643078 3.19026533 4.32019297 0 2 C0 1.34 0 0.68 0 0 Z " fill="#99BD49" transform="translate(157,96)"/>
<path d="M0 0 C2.25 0.0625 2.25 0.0625 5 1 C6.67849824 3.2308475 7.75999263 5.47405906 9 8 C4.7257442 6.4169423 2.73468206 3.49431596 0 0 Z " fill="#97AE65" transform="translate(70,212)"/>
<path d="M0 0 C0.99 0 1.98 0 3 0 C3 0.66 3 1.32 3 2 C4.32 1.67 5.64 1.34 7 1 C7 2.32 7 3.64 7 5 C4.03 4.505 4.03 4.505 1 4 C0.67 2.68 0.34 1.36 0 0 Z " fill="#AF555E" transform="translate(112,170)"/>
<path d="M0 0 C0.99 0.33 1.98 0.66 3 1 C3 3.31 3 5.62 3 8 C2.01 7.67 1.02 7.34 0 7 C0 4.69 0 2.38 0 0 Z " fill="#AB3340" transform="translate(133,172)"/>
<path d="M0 0 C0.66 0 1.32 0 2 0 C2 0.66 2 1.32 2 2 C2.66 2.33 3.32 2.66 4 3 C3.835 3.763125 3.67 4.52625 3.5 5.3125 C2.90854604 8.03596236 2.90854604 8.03596236 3 11 C2.34 11 1.68 11 1 11 C0.67 7.37 0.34 3.74 0 0 Z " fill="#99BE47" transform="translate(52,169)"/>
<path d="M0 0 C0 0.66 0 1.32 0 2 C-0.99 2 -1.98 2 -3 2 C-3.33 3.65 -3.66 5.3 -4 7 C-5.32 7 -6.64 7 -8 7 C-6.56389554 2.69168661 -4.72692072 0 0 0 Z " fill="#97BD4D" transform="translate(132,89)"/>
<path d="M0 0 C2 3 2 3 2 6 C0.02 6.33 -1.96 6.66 -4 7 C-3.34 5.35 -2.68 3.7 -2 2 C-1.34 2 -0.68 2 0 2 C0 1.34 0 0.68 0 0 Z " fill="#9FBB4B" transform="translate(213,201)"/>
<path d="M0 0 C0.66 0.66 1.32 1.32 2 2 C0.02 4.31 -1.96 6.62 -4 9 C-4.33 7.68 -4.66 6.36 -5 5 C-4.34 5 -3.68 5 -3 5 C-3 4.01 -3 3.02 -3 2 C-2.01 2 -1.02 2 0 2 C0 1.34 0 0.68 0 0 Z " fill="#97AC62" transform="translate(212,206)"/>
<path d="M0 0 C0.66 0 1.32 0 2 0 C1.67 1.98 1.34 3.96 1 6 C0.01 6.33 -0.98 6.66 -2 7 C-1.125 2.25 -1.125 2.25 0 0 Z " fill="#AABC62" transform="translate(226,181)"/>
<path d="M0 0 C1.65 0 3.3 0 5 0 C5.66 1.98 6.32 3.96 7 6 C5 6 5 6 3.5 4.5625 C3.005 4.046875 2.51 3.53125 2 3 C1.34 2.67 0.68 2.34 0 2 C0 1.34 0 0.68 0 0 Z " fill="#D34149" transform="translate(163,161)"/>
<path d="M0 0 C0.99 0 1.98 0 3 0 C5 3 5 3 4.625 5.6875 C4.41875 6.450625 4.2125 7.21375 4 8 C1.53721199 5.53721199 1.00228745 3.29323018 0 0 Z " fill="#A8B46C" transform="translate(199,152)"/>
<path d="M0 0 C2.475 0.99 2.475 0.99 5 2 C5 2.99 5 3.98 5 5 C3.35 5 1.7 5 0 5 C0 3.35 0 1.7 0 0 Z " fill="#CA4854" transform="translate(136,174)"/>
<path d="M0 0 C0.66 0.99 1.32 1.98 2 3 C0.02 4.32 -1.96 5.64 -4 7 C-3.43628586 3.73045798 -2.50037734 2.17424117 0 0 Z " fill="#A5BA6C" transform="translate(81,80)"/>
<path d="M0 0 C1.32 0.33 2.64 0.66 4 1 C2.35 2.65 0.7 4.3 -1 6 C-1.99 5.67 -2.98 5.34 -4 5 C-2.68 3.35 -1.36 1.7 0 0 Z " fill="#AFB689" transform="translate(184,225)"/>
<path d="M0 0 C0.66 0 1.32 0 2 0 C2.33 1.98 2.66 3.96 3 6 C1.35 6 -0.3 6 -2 6 C-2 5.34 -2 4.68 -2 4 C-1.01 4 -0.02 4 1 4 C0.67 2.68 0.34 1.36 0 0 Z " fill="#BB4F57" transform="translate(149,176)"/>
<path d="M0 0 C0.33 0 0.66 0 1 0 C1 2.97 1 5.94 1 9 C0.67 8.34 0.34 7.68 0 7 C-0.66 7 -1.32 7 -2 7 C-1.125 2.25 -1.125 2.25 0 0 Z " fill="#A73841" transform="translate(144,170)"/>
<path d="M0 0 C1.65 0.33 3.3 0.66 5 1 C5 1.66 5 2.32 5 3 C3.02 3.33 1.04 3.66 -1 4 C-0.67 2.68 -0.34 1.36 0 0 Z " fill="#B82E32" transform="translate(161,163)"/>
<path d="M0 0 C1.875 0.25 1.875 0.25 4 1 C5.25 3.0625 5.25 3.0625 6 5 C5.01 5 4.02 5 3 5 C1.3125 2.5 1.3125 2.5 0 0 Z " fill="#ACBF7A" transform="translate(176,118)"/>
<path d="M0 0 C2.375 0.25 2.375 0.25 5 1 C6.3125 3.0625 6.3125 3.0625 7 5 C6.01 5 5.02 5 4 5 C1.8125 2.5 1.8125 2.5 0 0 Z " fill="#A2B66D" transform="translate(170,112)"/>
<path d="M0 0 C0.66 0 1.32 0 2 0 C2.33 2.97 2.66 5.94 3 9 C0.9375 6.75 0.9375 6.75 -1 4 C-0.75 1.6875 -0.75 1.6875 0 0 Z " fill="#98BB4E" transform="translate(221,112)"/>
<path d="M0 0 C5.66153846 1.47692308 5.66153846 1.47692308 7.375 4.125 C7.684375 5.053125 7.684375 5.053125 8 6 C4.63408134 4.55746343 2.48952921 2.66735273 0 0 Z " fill="#9EB167" transform="translate(144,88)"/>
</svg>
